<?xml version="1.0" encoding="utf-8"?>
<!-- Generator: Adobe Illustrator 24.3.0, SVG Export Plug-In . SVG Version: 6.00 Build 0)  -->
<svg version="1.1" id="Layer_1" xmlns="http://www.w3.org/2000/svg" xmlns:xlink="http://www.w3.org/1999/xlink" x="0px" y="0px"
	 viewBox="0 0 100 100" style="enable-background:new 0 0 100 100;" xml:space="preserve">
<style type="text/css">
	.st0{fill:#FFFFFF;}
</style>
<g>
	<path class="st0" d="M54.46,68.4l-13.11-4.58v-3.38c0.95-0.9,1.84-1.93,2.66-3.08c1.35-1.89,2.45-4.03,3.29-6.34
		c0.19,0.03,0.39,0.05,0.57,0.05c0.85,0,1.65-0.26,2.37-0.78c2.11-1.51,3-4.86,3.15-7.48h0.02c0.04-0.69,0.86-16.99-7.82-26.18
		c-3.77-3.99-8.75-6.01-14.81-6.01c-6.55,0-11.74,2.06-15.43,6.12C8.49,24.28,8.92,36.39,9.26,40.3c-0.25,0.48-0.42,1.13-0.4,2.02
		c0.06,2.67,0.92,6.37,3.17,7.98c0.72,0.52,1.52,0.78,2.37,0.78c0.11,0,0.22-0.02,0.34-0.03c1.46,3.98,3.67,7.35,6.37,9.76v3.1
		L8.23,68.4C3.31,70.12,0,74.77,0,79.99v9.39h31.23h0.22h31.23v-9.39C62.69,74.77,59.39,70.12,54.46,68.4z M48.96,48.48
		c-0.3,0.21-0.61,0.32-0.94,0.34c0.66-2.35,1.05-4.84,1.17-7.4c0.6-0.25,1.41-0.44,1.74-0.24c0.18,0.11,0.28,0.52,0.27,1.08
		C51.14,45.02,50.22,47.57,48.96,48.48z M17.01,18.24c3.25-3.57,7.89-5.39,13.78-5.39c5.42,0,9.86,1.78,13.18,5.3
		c5.62,5.95,6.91,15.52,7.18,20.78c-0.67-0.12-1.36-0.03-1.94,0.13c-0.02-1.19-0.1-2.25-0.24-3.4l-0.32,0.04l0.18-0.21
		c-1.3-1.12-4.78-4.62-5.2-7.25l-0.26-1.64l-1.42,0.86c-0.12,0.07-12.56,7.48-27.69,6.67c-0.57-0.03-1.07,0.17-1.42,0.56
		c-0.74,0.84-0.51,2.18-0.26,3.59c0.04,0.23,0.08,0.47,0.12,0.69c-0.41-0.08-0.86-0.12-1.3-0.08
		C11.15,34.38,11.34,24.48,17.01,18.24z M13.34,48.48c-1.26-0.9-2.18-3.45-2.24-6.21c-0.01-0.57,0.09-0.97,0.27-1.08
		c0.28-0.17,0.91-0.06,1.46,0.14c0.12,2.61,0.53,5.12,1.18,7.46C13.78,48.72,13.55,48.63,13.34,48.48z M15.03,39.78
		c0-0.57-0.12-1.23-0.23-1.88c-0.08-0.44-0.19-1.09-0.21-1.51c12.97,0.57,23.7-4.41,27.28-6.31c1.11,2.8,3.83,5.53,4.99,6.62
		c0.1,0.99,0.15,1.96,0.15,3.09c0,3.96-0.71,7.77-2.03,11.13c-0.86,0.7-4.64,3.56-9.2,3.94c-0.38-1.25-1.54-2.16-2.92-2.16h-2.48
		c-1.68,0-3.05,1.37-3.05,3.09c0,1.68,1.37,3.05,3.05,3.05h2.48c1.2,0,2.25-0.7,2.74-1.73c2.87-0.16,5.45-1.16,7.39-2.2
		c-0.25,0.4-0.51,0.8-0.78,1.18c-3.02,4.22-6.99,6.55-11.19,6.55C22.2,62.61,15.03,52.37,15.03,39.78z M33.67,55.77
		c0,0.45-0.37,0.82-0.82,0.82h-2.48c-0.45,0-0.82-0.37-0.82-0.86c0-0.45,0.37-0.82,0.82-0.82h2.48
		C33.31,54.91,33.67,55.28,33.67,55.77z M31.01,64.84c2.87,0,5.62-0.9,8.11-2.6V65c-1.33,1.77-4.28,2.89-7.7,2.93
		c-3.5,0.05-6.66-1.1-8.05-2.9l-0.03-0.04V62.5C25.68,64,28.28,64.84,31.01,64.84z M60.46,87.15h-29h-0.22h-29v-7.16
		c0-4.27,2.71-8.08,6.73-9.48l12.46-4.35l0.18,0.24c1.8,2.34,5.47,3.78,9.63,3.78c0.07,0,0.14,0,0.22,0
		c4.21-0.05,7.77-1.51,9.51-3.89l0.13-0.18l12.64,4.41c4.03,1.41,6.73,5.22,6.73,9.48v7.15H60.46z"/>
	<path class="st0" d="M93.4,13.4H60.95c-3.24,0-5.87,2.63-5.87,5.87v17.45c0,3.07,2.5,5.56,5.56,5.56h1.2l-3.41,8.78l14.73-8.78
		h21.68c2.84,0,5.16-2.31,5.16-5.16V20C100,16.36,97.04,13.4,93.4,13.4z M97.77,37.12c0,1.61-1.31,2.93-2.93,2.93h-22.3l-9.68,5.77
		l2.24-5.77h-4.46c-1.84,0-3.33-1.49-3.33-3.33V19.27c0-2.01,1.63-3.64,3.64-3.64H93.4c2.41,0,4.37,1.96,4.37,4.37
		C97.77,20,97.77,37.12,97.77,37.12z"/>
	<rect x="61.69" y="19.35" class="st0" width="32.69" height="2.23"/>
	<rect x="61.69" y="23.93" class="st0" width="32.69" height="2.23"/>
	<rect x="61.69" y="29.7" class="st0" width="23.12" height="2.23"/>
	<rect x="61.69" y="34.39" class="st0" width="12.94" height="2.23"/>
</g>
</svg>
