<?xml version="1.0" encoding="utf-8"?>
<!-- Generator: Adobe Illustrator 24.3.0, SVG Export Plug-In . SVG Version: 6.00 Build 0)  -->
<svg version="1.1" id="Layer_1" xmlns="http://www.w3.org/2000/svg" xmlns:xlink="http://www.w3.org/1999/xlink" x="0px" y="0px"
	 viewBox="0 0 100 100" style="enable-background:new 0 0 100 100;" xml:space="preserve">
<style type="text/css">
	.st0{fill:#FFFFFF;}
</style>
<g>
	<path class="st0" d="M88.45,10.56h-76.9c-5.75,0-10.42,4.77-10.42,10.63v42.08c0,5.86,4.68,10.63,10.42,10.63h24.07v6.03h-7.47
		v9.52h43.04v-9.52h-8.22v-6.03h25.48c5.75,0,10.42-4.77,10.42-10.63V21.18C98.88,15.32,94.2,10.56,88.45,10.56z M11.55,12.91h76.9
		c4.45,0,8.07,3.71,8.07,8.27v39.86H3.48V21.18C3.48,16.62,7.1,12.91,11.55,12.91z M68.83,82.28v4.8H30.5v-4.8h5.11h27.35H68.83z
		 M60.61,79.92H37.97v-6.03h22.64V79.92z M88.45,71.53H62.97H35.62H11.55c-4.4,0-7.99-3.64-8.06-8.14h93.02
		C96.44,67.89,92.86,71.53,88.45,71.53z"/>
	<path class="st0" d="M29.39,46.6l-3.02,4l6.89,6.45l3.88-3.16c0.23,0.13,0.5,0.27,0.79,0.39l0.06,4.13h9.33l0.02-4.5
		c0.15-0.04,0.31-0.09,0.48-0.14l4.03,3.28l6.89-6.45l-3.02-4c0.28-0.61,0.6-1.38,0.83-1.98l4.54,0l0-9.58l-4.38,0.02
		c-0.23-0.79-0.52-1.51-0.86-2.14l2.85-3.26l-6.48-6.63l-3.71,2.83c-0.25-0.16-0.48-0.31-0.67-0.44l0.02-1.38l0-3.01l-9.95-0.01
		l0,4.25c-0.36,0.17-0.82,0.39-1.27,0.61l-3.74-2.86l-6.48,6.63l2.85,3.26c-0.34,0.63-0.62,1.34-0.86,2.14l-4.38-0.02l0,9.58l4.54,0
		C28.79,45.21,29.11,45.98,29.39,46.6z M26.39,37.41l3.88,0.02l0.21-0.93c0.28-1.26,0.69-2.27,1.21-3.02l0.53-0.76l-2.59-2.96
		l3.5-3.58l3.28,2.51l0.67-0.36c0.97-0.52,2.49-1.2,2.5-1.21l0.7-0.31l0-3.41l5.24,0.01l-0.04,3.22l0.48,0.36
		c0.04,0.03,1.01,0.76,2.1,1.35l0.67,0.36L52,26.18l3.5,3.58l-2.59,2.96l0.53,0.76c0.52,0.74,0.94,1.79,1.21,3.02l0.21,0.93
		l3.88-0.02l0,4.85l-3.01,0l-0.88,0.02l-0.25,0.84c-0.09,0.29-0.9,2.37-1.27,3.01l-0.39,0.68l2.65,3.52l-3.84,3.6l-3.53-2.88
		l-0.66,0.3c-0.76,0.34-1.47,0.41-1.47,0.41L45,51.83l-0.01,4.22h-4.66l-0.05-3.63l-0.94-0.18c-0.63-0.12-1.3-0.57-1.49-0.73
		l-0.75-0.62l-3.72,3.03l-3.84-3.6l2.65-3.52l-0.39-0.68c-0.37-0.63-1.18-2.72-1.27-3l-0.24-0.86l-3.9,0L26.39,37.41z"/>
	<path class="st0" d="M42.91,47.87c4.3,0,7.81-3.5,7.81-7.8c0-4.3-3.5-7.81-7.81-7.81c-4.3,0-7.81,3.5-7.81,7.81
		C35.1,44.37,38.6,47.87,42.91,47.87z M42.91,34.62c3,0,5.45,2.44,5.45,5.45c0,3-2.44,5.45-5.45,5.45c-3,0-5.45-2.44-5.45-5.45
		C37.46,37.07,39.9,34.62,42.91,34.62z"/>
	<path class="st0" d="M59.18,21.67l2.28,1.74l0.67-0.36c0.69-0.37,1.75-0.85,1.77-0.86l0.7-0.31l0-2.31l3.07,0l-0.03,2.13l0.48,0.36
		c0.03,0.02,0.74,0.56,1.54,0.99l0.67,0.36l2.28-1.74l2.07,2.12l-1.82,2.08l0.53,0.76c0.35,0.49,0.63,1.2,0.81,2.04l0.21,0.93
		l2.71-0.01l0,2.79l-1.81,0l-0.88,0.02l-0.26,0.83c-0.08,0.25-0.64,1.67-0.87,2.08l-0.4,0.68l1.85,2.45l-2.31,2.16l-2.45-2
		l-0.66,0.3c-0.48,0.22-0.93,0.26-0.93,0.26h0l-1.09,0.08l-0.01,2.99h-3.82v2.36h6.17l0.01-3.23l2.9,2.36l5.36-5.02l-2.22-2.94
		c0.15-0.33,0.3-0.7,0.43-1.03l3.35,0l0-7.51l-3.22,0.01c-0.13-0.41-0.28-0.79-0.46-1.14l2.09-2.39l-5.06-5.17l-2.7,2.06
		c-0.04-0.03-0.08-0.05-0.12-0.08l0.01-0.81l0-2.49l-7.78-0.01l0,3.16c-0.17,0.08-0.35,0.17-0.53,0.26l-2.74-2.09l-2.61,2.66
		l1.68,1.65L59.18,21.67z"/>
	<path class="st0" d="M72.04,31.14c0-3.26-2.65-5.91-5.91-5.91c-3.26,0-5.91,2.65-5.91,5.91c0,3.26,2.65,5.91,5.91,5.91
		C69.39,37.05,72.04,34.4,72.04,31.14z M62.58,31.14c0-1.96,1.59-3.55,3.55-3.55c1.96,0,3.55,1.59,3.55,3.55
		c0,1.96-1.59,3.55-3.55,3.55C64.17,34.69,62.58,33.1,62.58,31.14z"/>
</g>
</svg>
