<?xml version="1.0" encoding="utf-8"?>
<!-- Generator: Adobe Illustrator 24.3.0, SVG Export Plug-In . SVG Version: 6.00 Build 0)  -->
<svg version="1.1" id="Layer_1" xmlns="http://www.w3.org/2000/svg" xmlns:xlink="http://www.w3.org/1999/xlink" x="0px" y="0px"
	 viewBox="0 0 100 100" style="enable-background:new 0 0 100 100;" xml:space="preserve">
<style type="text/css">
	.st0{fill:#FFFFFF;}
</style>
<g>
	<g>
		<path class="st0" d="M37.28,87.42c-6.18,0-12.3-1.56-17.86-4.63C10.74,78,4.45,70.13,1.69,60.61c-2.75-9.52-1.63-19.54,3.15-28.22
			c4.79-8.68,12.66-14.97,22.18-17.72s19.54-1.63,28.22,3.15C63.92,22.61,70.21,30.48,72.96,40c0.11,0.38,0.22,0.77,0.32,1.16
			C73.49,41.98,73,42.8,72.19,43c-0.81,0.21-1.63-0.28-1.83-1.09c-0.09-0.36-0.19-0.72-0.29-1.07c-2.53-8.75-8.31-15.98-16.28-20.38
			s-17.18-5.43-25.92-2.9S11.89,25.87,7.49,33.84s-5.43,17.18-2.9,25.92s8.31,15.98,16.28,20.38s17.18,5.43,25.92,2.9
			c0.35-0.1,0.71-0.21,1.06-0.33c0.79-0.26,1.64,0.18,1.9,0.97c0.26,0.79-0.18,1.64-0.97,1.9c-0.38,0.12-0.77,0.24-1.16,0.35
			C44.22,86.93,40.74,87.42,37.28,87.42z"/>
	</g>
	<g>
		<path class="st0" d="M56.94,46.14c-0.65,0-1.26-0.43-1.45-1.09c-2.91-10.08-8.34-18.68-14.88-23.6c-0.67-0.5-0.8-1.45-0.3-2.11
			c0.5-0.67,1.45-0.8,2.11-0.3c7.05,5.3,12.87,14.48,15.96,25.18c0.23,0.8-0.23,1.64-1.03,1.87C57.22,46.13,57.08,46.14,56.94,46.14
			z"/>
	</g>
	<g>
		<path class="st0" d="M33.52,82.16c-0.31,0-0.62-0.09-0.88-0.29c-7.24-5.26-13.21-14.54-16.37-25.48
			c-3.09-10.7-3.07-21.56,0.07-29.81c0.3-0.78,1.17-1.17,1.95-0.87s1.17,1.17,0.87,1.95c-2.91,7.65-2.91,17.82,0.01,27.9
			c2.98,10.3,8.53,19,15.24,23.87c0.67,0.49,0.82,1.43,0.33,2.11C34.45,81.94,33.99,82.16,33.52,82.16z"/>
	</g>
	<g>
		<path class="st0" d="M45.91,81.52c-0.65,0-1.26-0.43-1.45-1.09L27.29,21.02c-0.23-0.8,0.23-1.64,1.03-1.87
			c0.8-0.23,1.64,0.23,1.87,1.03l17.17,59.41c0.23,0.8-0.23,1.64-1.03,1.87C46.19,81.5,46.05,81.52,45.91,81.52z"/>
	</g>
	<g>
		<path class="st0" d="M7.63,60.4c-0.65,0-1.26-0.43-1.45-1.09c-0.23-0.8,0.23-1.64,1.03-1.87l59.41-17.17
			c0.8-0.23,1.64,0.23,1.87,1.03s-0.23,1.64-1.03,1.87L8.04,60.34C7.91,60.38,7.76,60.4,7.63,60.4z"/>
	</g>
	<g>
		<path class="st0" d="M9.26,38.67c-0.65,0-1.26-0.43-1.45-1.09c-0.23-0.8,0.23-1.64,1.03-1.87l44.8-12.95
			c0.8-0.23,1.64,0.23,1.87,1.03c0.23,0.8-0.23,1.64-1.03,1.87L9.68,38.61C9.54,38.65,9.4,38.67,9.26,38.67z"/>
	</g>
	<g>
		<path class="st0" d="M20.6,77.9c-0.65,0-1.26-0.43-1.45-1.09c-0.23-0.8,0.23-1.64,1.03-1.87l22.4-6.47
			c0.8-0.23,1.64,0.23,1.87,1.03c0.23,0.8-0.23,1.64-1.03,1.87l-22.4,6.47C20.88,77.88,20.74,77.9,20.6,77.9z"/>
	</g>
	<g>
		<path class="st0" d="M73.1,69.1c-0.48,0-0.97-0.09-1.43-0.28L54.69,61.8c-0.77-0.32-1.14-1.2-0.82-1.97s1.2-1.14,1.97-0.82
			l16.97,7.02c0.33,0.14,0.77,0.01,0.99-0.29l10.75-14.78c0.49-0.67,1.43-0.82,2.11-0.33c0.67,0.49,0.82,1.43,0.33,2.11L76.24,67.52
			C75.51,68.53,74.31,69.1,73.1,69.1z"/>
	</g>
	<g>
		<path class="st0" d="M57.87,85.92c-2.58,0-4.96-1.7-5.7-4.3L45.8,59.25c-0.43-1.52-0.25-3.12,0.52-4.5s2.03-2.38,3.55-2.82
			l31.81-9.07l0,0l4.17-1.19c1.52-0.43,3.12-0.25,4.5,0.52s2.38,2.03,2.82,3.55l6.38,22.37c0.43,1.52,0.25,3.12-0.52,4.5
			C98.26,74,97,75,95.48,75.43L59.49,85.69C58.95,85.85,58.41,85.92,57.87,85.92z M82.51,45.76L50.7,54.83
			c-0.75,0.21-1.37,0.7-1.74,1.38c-0.38,0.68-0.47,1.46-0.26,2.21l6.38,22.37c0.44,1.54,2.05,2.44,3.59,2l35.99-10.26
			c0.75-0.21,1.37-0.7,1.74-1.38c0.38-0.68,0.47-1.46,0.26-2.21l-6.38-22.37c-0.21-0.75-0.7-1.37-1.38-1.74
			c-0.68-0.38-1.46-0.47-2.21-0.25L82.51,45.76L82.51,45.76z"/>
	</g>
	<g>
		<path class="st0" d="M59.73,77.12c-0.3,0-0.6-0.09-0.87-0.28c-0.68-0.48-0.84-1.42-0.36-2.1l3.99-5.64
			c0.48-0.68,1.42-0.84,2.1-0.36c0.68,0.48,0.84,1.42,0.36,2.1l-3.99,5.64C60.67,76.9,60.2,77.12,59.73,77.12z"/>
	</g>
	<g>
		<path class="st0" d="M89.97,68.5c-0.2,0-0.39-0.04-0.59-0.12l-6.37-2.69c-0.77-0.32-1.13-1.21-0.8-1.98
			c0.32-0.77,1.21-1.13,1.98-0.8l6.37,2.69c0.77,0.32,1.13,1.21,0.8,1.98C91.12,68.15,90.56,68.5,89.97,68.5z"/>
	</g>
	<g>
		<path class="st0" d="M86.02,35.86c-0.39,0-0.77-0.15-1.07-0.44c-0.59-0.59-0.59-1.54,0-2.13l0.96-0.96c0.59-0.59,1.54-0.59,2.13,0
			s0.59,1.54,0,2.13l-0.96,0.96C86.79,35.72,86.41,35.86,86.02,35.86z"/>
	</g>
	<g>
		<path class="st0" d="M91.21,30.67c-0.39,0-0.77-0.15-1.07-0.44c-0.59-0.59-0.59-1.54,0-2.13l0.96-0.96c0.59-0.59,1.54-0.59,2.13,0
			s0.59,1.54,0,2.13l-0.96,0.96C91.99,30.52,91.6,30.67,91.21,30.67z"/>
	</g>
	<g>
		<path class="st0" d="M92.18,35.86c-0.39,0-0.77-0.15-1.07-0.44l-0.96-0.96c-0.59-0.59-0.59-1.54,0-2.13s1.54-0.59,2.13,0
			l0.96,0.96c0.59,0.59,0.59,1.54,0,2.13C92.95,35.72,92.56,35.86,92.18,35.86z"/>
	</g>
	<g>
		<path class="st0" d="M86.98,30.67c-0.39,0-0.77-0.15-1.07-0.44l-0.96-0.96c-0.59-0.59-0.59-1.54,0-2.13s1.54-0.59,2.13,0
			l0.96,0.96c0.59,0.59,0.59,1.54,0,2.13C87.76,30.52,87.37,30.67,86.98,30.67z"/>
	</g>
	<g>
		<path class="st0" d="M73.43,15.9c-0.39,0-0.77-0.15-1.07-0.44l-0.3-0.3c-0.59-0.59-0.59-1.54,0-2.13s1.54-0.59,2.13,0l0.3,0.3
			c0.59,0.59,0.59,1.54,0,2.13C74.2,15.75,73.81,15.9,73.43,15.9z"/>
	</g>
	<g>
		<path class="st0" d="M77.73,20.2c-0.39,0-0.77-0.15-1.07-0.44l-0.3-0.3c-0.59-0.59-0.59-1.54,0-2.13s1.54-0.59,2.13,0l0.3,0.3
			c0.59,0.59,0.59,1.54,0,2.13C78.5,20.06,78.12,20.2,77.73,20.2z"/>
	</g>
	<g>
		<path class="st0" d="M73.13,20.2c-0.39,0-0.77-0.15-1.07-0.44c-0.59-0.59-0.59-1.54,0-2.13l0.3-0.3c0.59-0.59,1.54-0.59,2.13,0
			s0.59,1.54,0,2.13l-0.3,0.3C73.9,20.06,73.51,20.2,73.13,20.2z"/>
	</g>
	<g>
		<path class="st0" d="M77.43,15.9c-0.39,0-0.77-0.15-1.07-0.44c-0.59-0.59-0.59-1.54,0-2.13l0.3-0.3c0.59-0.59,1.54-0.59,2.13,0
			s0.59,1.54,0,2.13l-0.3,0.3C78.2,15.75,77.82,15.9,77.43,15.9z"/>
	</g>
</g>
</svg>
