<?xml version="1.0" encoding="utf-8"?>
<!-- Generator: Adobe Illustrator 24.3.0, SVG Export Plug-In . SVG Version: 6.00 Build 0)  -->
<svg version="1.1" id="Layer_1" xmlns="http://www.w3.org/2000/svg" xmlns:xlink="http://www.w3.org/1999/xlink" x="0px" y="0px"
	 viewBox="0 0 100 100" style="enable-background:new 0 0 100 100;" xml:space="preserve">
<style type="text/css">
	.st0{fill:#FFFFFF;}
</style>
<g>
	<path class="st0" d="M47.02,69.29c-0.3-0.2-0.53-0.38-0.78-0.51C32.01,61.02,21.45,49.7,13.93,35.44
		C8.75,25.6,5.36,15.16,3.69,4.15C3.61,3.6,3.58,3.03,3.49,2.47c-0.14-0.91-0.08-1.7,1.04-1.89c0.9-0.16,1.29,0.32,1.52,1.51
		c0.83,4.28,1.44,8.63,2.6,12.82c4.26,15.38,11.61,29.03,23.24,40.17c5.15,4.93,10.92,9,17.3,12.19c0.41,0.21,1.1,0.2,1.51,0
		c12.28-6.19,22-15.21,29.38-26.76c7.22-11.3,11.67-23.64,13.7-36.87c0.09-0.56,0.13-1.12,0.2-1.68c0.1-0.9,0.53-1.57,1.51-1.44
		c1,0.13,1.2,0.94,1.02,1.81c-0.96,4.72-1.65,9.51-2.95,14.13C89.53,30.82,82.73,43.7,72.38,54.57
		c-5.33,5.61-11.4,10.28-18.18,14.03c-0.35,0.2-0.7,0.41-1.24,0.73c4.24,0.89,7.42,3.07,9.72,6.46c2.33,3.44,3.07,7.27,2.29,11.32
		c-1.43,7.4-7.82,12.56-15.22,12.37c-7.34-0.18-13.57-5.6-14.71-12.63C33.93,79.97,37.53,71.72,47.02,69.29z M50.01,88.95
		c2.72,0.02,4.83-2.04,4.86-4.74c0.04-2.67-2.08-4.81-4.78-4.83c-2.71-0.02-4.83,2.06-4.86,4.74C45.22,86.8,47.32,88.93,50.01,88.95
		z M53.71,72.02c-2.5-0.68-4.87-0.74-7.3,0.02c0.4,1.03,0.76,1.94,1.12,2.84c0.25,0.63,0.35,1.49,0.82,1.81
		c0.48,0.32,1.32,0.11,2.01,0.14c0.26,0.01,0.54,0.09,0.79,0.04c0.22-0.04,0.52-0.17,0.6-0.35C52.41,75.06,53.04,73.57,53.71,72.02z
		 M61.19,89.98c-1.67-0.75-3.21-1.43-4.51-2.01c-0.93,0.89-1.74,1.66-2.62,2.49c0.62,1.49,1.27,3.06,1.96,4.71
		C58.31,93.9,59.91,92.23,61.19,89.98z M53.59,96.3c-0.63-1.52-1.2-2.95-1.8-4.36c-0.23-0.54-3.29-0.79-3.63-0.32
		c-0.02,0.03-0.03,0.07-0.05,0.1c-0.56,1.46-1.12,2.91-1.71,4.44C48.83,97.01,51.13,97.02,53.59,96.3z M43.59,87.9
		c-1.52,0.72-3.07,1.46-4.65,2.21c1.18,2.26,2.77,3.98,5.05,5.13c0.57-1.52,1.15-2.98,1.66-4.46c0.08-0.24-0.03-0.64-0.2-0.85
		C44.91,89.27,44.3,88.66,43.59,87.9z M62.08,80.66c-1.67,0.59-3.29,1.16-4.81,1.71c0.06,1.21,0.11,2.25,0.17,3.38
		c1.52,0.66,3.09,1.34,4.66,2.03C62.89,86,62.89,82.61,62.08,80.66z M38.84,78.21c1.69,0.64,3.32,1.25,4.86,1.83
		c0.68-0.64,1.29-1.19,1.86-1.79c0.17-0.18,0.32-0.54,0.25-0.74c-0.57-1.49-1.2-2.95-1.83-4.48C41.65,74.24,40.11,76.01,38.84,78.21
		z M55.9,73.13c-0.74,1.65-1.43,3.21-2.1,4.7c0.71,0.64,1.3,1.22,1.93,1.74c0.19,0.16,0.55,0.29,0.76,0.22
		c1.52-0.53,3.01-1.12,4.58-1.72C59.84,75.83,57.99,74.45,55.9,73.13z M37.93,87.68c1.53-0.73,2.95-1.38,4.35-2.07
		c0.16-0.08,0.33-0.31,0.35-0.49c0.07-0.74,0.11-1.49,0.09-2.23c-0.01-0.24-0.18-0.6-0.38-0.68c-1.44-0.59-2.91-1.13-4.44-1.71
		C37.21,82.92,37.27,85.19,37.93,87.68z"/>
</g>
</svg>
