<?xml version="1.0" encoding="utf-8"?>
<!-- Generator: Adobe Illustrator 24.3.0, SVG Export Plug-In . SVG Version: 6.00 Build 0)  -->
<svg version="1.1" id="Layer_1" xmlns="http://www.w3.org/2000/svg" xmlns:xlink="http://www.w3.org/1999/xlink" x="0px" y="0px"
	 viewBox="0 0 100 100" style="enable-background:new 0 0 100 100;" xml:space="preserve">
<style type="text/css">
	.st0{fill:#262962;}
	.st1{fill:#FFFFFF;}
	.st2{fill:#3D4078;}
	.st3{fill:#787B9C;}
</style>
<g>
	<g>
		<g>
			<path class="st0" d="M89.92,76.11l-0.52-0.26c-0.02,0.05-0.03,0.09-0.03,0.11c0-0.01,0-0.02,0-0.03
				c0.01-0.12,0.02-0.22,0.02-0.31v-22.6c0-1.54-1.25-2.79-2.79-2.79H67.33c-1.54,0-2.79,1.25-2.79,2.79v22.6c0,0.01,0,0.02,0,0.03
				c0,0.02,0,0.03,0,0.05c0,0.09,0,0.16,0.01,0.22c0,0.01,0,0.03,0,0.04c0-0.02,0-0.06-0.03-0.11l-0.52,0.26
				c-0.03-0.05-0.03-0.1-0.03-0.13c-0.01-0.08-0.02-0.17-0.02-0.27c0-0.03,0-0.07,0-0.1v-22.6c0-1.86,1.51-3.38,3.38-3.38H86.6
				c1.86,0,3.38,1.51,3.38,3.38v22.6c0,0.11-0.01,0.23-0.02,0.36C89.96,76.01,89.95,76.06,89.92,76.11z M82.82,63.18
				c-0.4,0-0.78-0.16-1.07-0.44c-0.29-0.29-0.44-0.67-0.44-1.07s0.16-0.78,0.44-1.07c0,0,0,0,0,0c0.29-0.28,0.67-0.44,1.07-0.44
				c0.4,0,0.78,0.16,1.07,0.44c0,0,0,0,0,0l0,0c0.28,0.29,0.44,0.67,0.44,1.07s-0.16,0.78-0.44,1.07
				C83.6,63.03,83.22,63.18,82.82,63.18z M82.16,61.01c-0.17,0.18-0.27,0.41-0.27,0.66c0,0.25,0.1,0.48,0.27,0.66
				c0.18,0.17,0.41,0.27,0.66,0.27c0.25,0,0.48-0.1,0.66-0.27c0.11-0.11,0.19-0.25,0.23-0.39c0.03-0.09,0.04-0.17,0.04-0.27
				c0-0.25-0.1-0.48-0.27-0.66c-0.18-0.17-0.41-0.27-0.66-0.27C82.57,60.74,82.34,60.83,82.16,61.01z"/>
		</g>
		<g>
			<path class="st0" d="M89.71,76.25h-0.02c-0.16,0-0.29-0.13-0.29-0.29v-0.34c0-0.16,0.13-0.29,0.29-0.29
				c0.16,0,0.29,0.13,0.29,0.29c0,0.1,0.01,0.2,0.02,0.31c0.01,0.08-0.02,0.17-0.07,0.23C89.87,76.21,89.79,76.25,89.71,76.25z"/>
		</g>
		<g>
			<path class="st0" d="M89.85,76.25h-0.02c-0.08,0-0.16-0.04-0.22-0.1c-0.06-0.06-0.08-0.14-0.07-0.23
				c0.01-0.12,0.02-0.22,0.02-0.31v-2.46c0-0.12,0.07-0.22,0.18-0.27c0.11-0.05,0.23-0.02,0.32,0.06c0.06,0.06,0.09,0.14,0.09,0.22
				v2.8C90.14,76.12,90.01,76.25,89.85,76.25z"/>
		</g>
		<g>
			<path class="st0" d="M89.69,76.25H64.25c-0.16,0-0.29-0.13-0.29-0.29v-2.48c0-0.09,0.04-0.18,0.11-0.23
				c0.15-0.11,3.74-2.78,12.94-2.78c9.19,0,12.71,2.67,12.86,2.78c0.07,0.06,0.11,0.14,0.11,0.23v2.48
				C89.98,76.12,89.85,76.25,89.69,76.25z M64.54,75.67h24.85v-2.04c-0.66-0.44-4.3-2.58-12.39-2.58c-8.09,0-11.79,2.14-12.47,2.58
				V75.67z"/>
		</g>
		<g>
			<g>
				<g>
					<path class="st0" d="M73.21,64.09c-0.07,0-0.15-0.03-0.21-0.09l-1.27-1.27c-0.11-0.11-0.11-0.3,0-0.41
						c0.11-0.11,0.3-0.11,0.41,0l1.27,1.27c0.11,0.11,0.11,0.3,0,0.41C73.36,64.07,73.29,64.09,73.21,64.09z"/>
				</g>
				<g>
					<path class="st0" d="M70.21,61.09c-0.07,0-0.15-0.03-0.21-0.09l-1.27-1.27c-0.11-0.11-0.11-0.3,0-0.41
						c0.11-0.11,0.3-0.11,0.41,0l1.27,1.27c0.11,0.11,0.11,0.3,0,0.41C70.36,61.07,70.29,61.09,70.21,61.09z"/>
				</g>
				<g>
					<path class="st0" d="M68.94,64.09c-0.07,0-0.15-0.03-0.21-0.09c-0.11-0.11-0.11-0.3,0-0.41l1.27-1.27
						c0.11-0.11,0.3-0.11,0.41,0c0.11,0.11,0.11,0.3,0,0.41l-1.27,1.27C69.09,64.07,69.02,64.09,68.94,64.09z"/>
				</g>
				<g>
					<path class="st0" d="M71.94,61.09c-0.07,0-0.15-0.03-0.21-0.09c-0.11-0.11-0.11-0.3,0-0.41l1.27-1.27
						c0.11-0.11,0.3-0.11,0.41,0c0.11,0.11,0.11,0.3,0,0.41l-1.27,1.27C72.09,61.07,72.02,61.09,71.94,61.09z"/>
				</g>
			</g>
			<g>
				<path class="st0" d="M71.08,63.18c-0.84,0-1.51-0.68-1.51-1.51c0-0.84,0.68-1.51,1.51-1.51c0.84,0,1.52,0.68,1.52,1.51
					C72.59,62.5,71.91,63.18,71.08,63.18z M71.08,60.74c-0.51,0-0.93,0.42-0.93,0.93c0,0.51,0.42,0.93,0.93,0.93
					s0.93-0.42,0.93-0.93C72.01,61.15,71.59,60.74,71.08,60.74z"/>
			</g>
		</g>
		<g>
			<g>
				<g>
					<path class="st0" d="M84.95,64.09c-0.07,0-0.15-0.03-0.21-0.09l-1.27-1.27c-0.11-0.11-0.11-0.3,0-0.41
						c0.11-0.11,0.3-0.11,0.41,0l1.27,1.27c0.11,0.11,0.11,0.3,0,0.41C85.1,64.07,85.03,64.09,84.95,64.09z"/>
				</g>
				<g>
					<path class="st0" d="M81.95,61.09c-0.07,0-0.15-0.03-0.21-0.09l-1.27-1.27c-0.11-0.11-0.11-0.3,0-0.41
						c0.11-0.11,0.3-0.11,0.41,0l1.27,1.27c0.11,0.11,0.11,0.3,0,0.41C82.1,61.07,82.03,61.09,81.95,61.09z"/>
				</g>
				<g>
					<path class="st0" d="M83.69,61.09c-0.07,0-0.15-0.03-0.21-0.09c-0.11-0.11-0.11-0.3,0-0.41l1.27-1.27
						c0.11-0.11,0.3-0.11,0.41,0c0.11,0.11,0.11,0.3,0,0.41l-1.27,1.27C83.83,61.07,83.76,61.09,83.69,61.09z"/>
				</g>
				<g>
					<path class="st0" d="M80.69,64.09c-0.07,0-0.15-0.03-0.21-0.09c-0.11-0.11-0.11-0.3,0-0.41l1.27-1.27
						c0.11-0.11,0.3-0.11,0.41,0c0.11,0.11,0.11,0.3,0,0.41l-1.27,1.27C80.83,64.07,80.76,64.09,80.69,64.09z"/>
				</g>
			</g>
			<g>
				<path class="st0" d="M82.82,63.18c-0.4,0-0.78-0.16-1.07-0.44c-0.29-0.29-0.44-0.67-0.44-1.07s0.16-0.78,0.44-1.07
					c0.29-0.29,0.67-0.44,1.07-0.44s0.78,0.16,1.07,0.44l-0.41,0.42c-0.18-0.18-0.41-0.27-0.66-0.27s-0.48,0.1-0.66,0.27
					c-0.17,0.18-0.27,0.41-0.27,0.66c0,0.25,0.1,0.48,0.27,0.66c0.18,0.17,0.41,0.27,0.66,0.27s0.48-0.1,0.66-0.27l0.41,0.42
					C83.6,63.03,83.22,63.18,82.82,63.18z"/>
			</g>
		</g>
		<g>
			<path class="st0" d="M95.05,82.83H58.9c-0.16,0-0.29-0.13-0.29-0.29V69.5c-2.64-0.28-4.66-2.51-4.66-5.19
				c0-2.88,2.34-5.22,5.22-5.22c2.88,0,5.22,2.34,5.22,5.22v11.38h25.16V64.31c0-2.88,2.34-5.22,5.22-5.22
				c2.88,0,5.22,2.34,5.22,5.22c0,2.68-2.03,4.9-4.66,5.19v13.04C95.34,82.7,95.21,82.83,95.05,82.83z M59.2,82.24h35.56V69.23
				c0-0.16,0.12-0.28,0.28-0.29c2.46-0.13,4.39-2.17,4.39-4.63c0-2.56-2.08-4.64-4.64-4.64c-2.56,0-4.64,2.08-4.64,4.64v11.67
				c0,0.16-0.13,0.29-0.29,0.29H64.1c-0.16,0-0.29-0.13-0.29-0.29V64.31c0-2.56-2.08-4.64-4.64-4.64c-2.56,0-4.64,2.08-4.64,4.64
				c0,2.46,1.93,4.49,4.38,4.63c0.15,0.01,0.28,0.14,0.28,0.29V82.24z"/>
		</g>
		<g>
			<path class="st0" d="M59.17,66.6c-1.26,0-2.29-1.03-2.29-2.29c0-1.26,1.03-2.28,2.29-2.28c1.26,0,2.28,1.02,2.28,2.28
				C61.46,65.57,60.43,66.6,59.17,66.6z M59.17,62.61c-0.94,0-1.7,0.76-1.7,1.7c0,0.94,0.76,1.7,1.7,1.7c0.94,0,1.7-0.76,1.7-1.7
				C60.87,63.37,60.11,62.61,59.17,62.61z"/>
		</g>
		<g>
			<path class="st0" d="M94.78,66.6c-1.26,0-2.29-1.03-2.29-2.29c0-1.26,1.03-2.28,2.29-2.28c1.26,0,2.28,1.02,2.28,2.28
				C97.06,65.57,96.04,66.6,94.78,66.6z M94.78,62.61c-0.94,0-1.7,0.76-1.7,1.7c0,0.94,0.76,1.7,1.7,1.7c0.94,0,1.7-0.76,1.7-1.7
				C96.48,63.37,95.71,62.61,94.78,62.61z"/>
		</g>
		<g>
			<path class="st0" d="M95.05,82.83H58.9c-0.16,0-0.29-0.13-0.29-0.29v-4.16c0-0.16,0.13-0.29,0.29-0.29h36.14
				c0.16,0,0.29,0.13,0.29,0.29v4.16C95.34,82.7,95.21,82.83,95.05,82.83z M59.2,82.24h35.56v-3.57H59.2V82.24z"/>
		</g>
		<g>
			<path class="st0" d="M63.61,90.72H61.8c-0.15,0-0.27-0.11-0.29-0.26l-0.85-7.89c-0.01-0.08,0.02-0.16,0.07-0.23
				c0.06-0.06,0.13-0.1,0.22-0.1h3.5c0.08,0,0.16,0.04,0.22,0.1c0.06,0.06,0.08,0.14,0.07,0.23l-0.85,7.89
				C63.89,90.6,63.76,90.72,63.61,90.72z M62.07,90.13h1.28l0.78-7.3h-2.85L62.07,90.13z"/>
		</g>
		<g>
			<path class="st0" d="M92.32,90.72h-1.81c-0.15,0-0.27-0.11-0.29-0.26l-0.84-7.89c-0.01-0.08,0.02-0.16,0.07-0.23
				c0.06-0.06,0.13-0.1,0.22-0.1h3.5c0.08,0,0.16,0.04,0.22,0.1c0.06,0.06,0.08,0.14,0.07,0.23l-0.84,7.89
				C92.59,90.6,92.47,90.72,92.32,90.72z M90.77,90.13h1.28l0.78-7.3h-2.85L90.77,90.13z"/>
		</g>
	</g>
	<g id="columns">
		<g>
			<rect x="3.83" y="45.73" class="st1" width="19.85" height="43.55"/>
			<g>
				<path class="st2" d="M20.54,47.38c-0.41,0.14-0.7,0.53-0.7,0.98v40.92h-0.69V48.36c0-0.58,0.47-1.04,1.04-1.04
					C20.32,47.32,20.44,47.34,20.54,47.38z"/>
				<path class="st2" d="M17.32,47.38c-0.41,0.14-0.7,0.53-0.7,0.98v40.92h-0.69V48.36c0-0.58,0.47-1.04,1.04-1.04
					C17.1,47.32,17.21,47.34,17.32,47.38z"/>
				<path class="st2" d="M14.1,47.38c-0.41,0.14-0.7,0.53-0.7,0.98v40.92h-0.69V48.36c0-0.58,0.47-1.04,1.04-1.04
					C13.87,47.32,13.99,47.34,14.1,47.38z"/>
				<path class="st2" d="M10.87,47.38c-0.41,0.14-0.7,0.53-0.7,0.98v40.92H9.49V48.36c0-0.58,0.47-1.04,1.04-1.04
					C10.65,47.32,10.76,47.34,10.87,47.38z"/>
				<path class="st2" d="M7.65,47.38c-0.41,0.14-0.7,0.53-0.7,0.98v40.92H6.26V48.36c0-0.58,0.47-1.04,1.04-1.04
					C7.42,47.32,7.54,47.34,7.65,47.38z"/>
				<path class="st0" d="M21.24,48.36v40.92h-1.4V48.36c0-0.45,0.29-0.84,0.7-0.98C20.95,47.52,21.24,47.91,21.24,48.36z"/>
				<path class="st0" d="M18.02,48.36v40.92h-1.4V48.36c0-0.45,0.29-0.84,0.7-0.98C17.73,47.52,18.02,47.91,18.02,48.36z"/>
				<path class="st0" d="M14.79,48.36v40.92h-1.4V48.36c0-0.45,0.29-0.84,0.7-0.98C14.5,47.52,14.79,47.91,14.79,48.36z"/>
				<path class="st0" d="M11.57,48.36v40.92h-1.4V48.36c0-0.45,0.29-0.84,0.7-0.98C11.28,47.52,11.57,47.91,11.57,48.36z"/>
				<path class="st0" d="M8.34,48.36v40.92h-1.4V48.36c0-0.45,0.29-0.84,0.7-0.98C8.05,47.52,8.34,47.91,8.34,48.36z"/>
			</g>
			<rect x="3.83" y="36.92" class="st2" width="19.85" height="7.62"/>
			<g>
				<rect x="3.83" y="44.55" class="st2" width="19.85" height="1.32"/>
			</g>
			<g>
				<path class="st1" d="M27.74,36.33c0.85,0.94,1.37,2.2,1.37,3.57c0,2.94-2.38,5.32-5.32,5.32c-0.56,0-1.09-0.09-1.59-0.24
					c-0.42-0.1-0.82-0.26-1.18-0.48c0.56,0.67,1.34,1.17,2.23,1.37c0.5,0.16,1.04,0.24,1.59,0.24c2.94,0,5.32-2.38,5.32-5.32
					C30.15,38.92,29.19,37.28,27.74,36.33z"/>
				<path class="st1" d="M5.47,43.58c-0.57,0.69-1.35,1.19-2.25,1.4c-0.5,0.16-1.04,0.24-1.59,0.24c-1.07,0-2.07-0.32-2.91-0.87
					c0.97,1.08,2.38,1.76,3.95,1.76c0.56,0,1.09-0.09,1.59-0.24c0.9-0.21,1.68-0.71,2.25-1.4c0.59-0.71,0.94-1.63,0.94-2.62
					c0-1.5-0.8-2.82-2.01-3.54c0.6,0.72,0.96,1.64,0.96,2.65C6.41,41.95,6.06,42.87,5.47,43.58z"/>
				<path class="st1" d="M22,36.99c-0.06,0.01-0.12,0.02-0.18,0.03c0,0-0.01,0-0.01,0c-0.06,0.01-0.11,0.02-0.17,0.04
					c-0.01,0-0.01,0-0.02,0.01c-0.06,0.01-0.11,0.03-0.17,0.05c-0.01,0-0.02,0-0.02,0.01c-0.06,0.02-0.11,0.04-0.17,0.05
					c-0.01,0-0.01,0.01-0.02,0.01c-0.06,0.02-0.12,0.04-0.17,0.07c-0.01,0-0.01,0-0.02,0.01c-0.06,0.02-0.12,0.05-0.19,0.08
					c0,0,0,0,0,0c-0.46,0.2-0.95,0.49-1.5,0.86c0,0-0.01,0.01-0.01,0.01c-0.07,0.05-0.15,0.1-0.22,0.15c-0.01,0-0.01,0.01-0.02,0.01
					c-0.08,0.05-0.15,0.1-0.23,0.16c0,0-0.01,0.01-0.01,0.01c-0.08,0.06-0.16,0.12-0.25,0.18c-0.19,0.14-0.39,0.28-0.6,0.43
					c-1.14,0.84-3.04,2.04-5.29,2.04c-2.25,0-4.15-1.2-5.29-2.04c-0.21-0.15-0.41-0.3-0.6-0.43c-0.08-0.06-0.17-0.12-0.25-0.18
					c0,0-0.01-0.01-0.01-0.01c-0.08-0.05-0.15-0.11-0.23-0.16c-0.01,0-0.01-0.01-0.02-0.01c-0.08-0.05-0.15-0.1-0.22-0.15
					c0,0-0.01-0.01-0.01-0.01c-0.55-0.36-1.04-0.65-1.5-0.86c0,0,0,0,0,0c-0.06-0.03-0.13-0.05-0.19-0.08c-0.01,0-0.01,0-0.02-0.01
					c-0.06-0.02-0.12-0.04-0.17-0.07c-0.01,0-0.01-0.01-0.02-0.01C4.11,37.15,4.05,37.14,4,37.12c-0.01,0-0.02,0-0.02-0.01
					c-0.06-0.02-0.11-0.03-0.17-0.05c-0.01,0-0.01,0-0.02-0.01c-0.06-0.01-0.11-0.03-0.17-0.04c0,0-0.01,0-0.01,0
					C3.54,37.01,3.48,37,3.42,36.99c0.7,0.2,1.33,0.58,1.82,1.09c0.05,0.02,0.11,0.04,0.16,0.06c0.01,0,0.01,0,0.02,0.01
					c0.06,0.02,0.12,0.05,0.19,0.08c0,0,0,0,0,0c0.46,0.2,0.95,0.49,1.5,0.86c0,0,0.01,0.01,0.01,0.01c0.07,0.05,0.15,0.1,0.22,0.15
					c0.01,0,0.01,0.01,0.02,0.01c0.08,0.05,0.15,0.1,0.23,0.16c0,0,0.01,0.01,0.01,0.01c0.08,0.06,0.16,0.12,0.25,0.18
					c0.19,0.14,0.39,0.28,0.6,0.43c1.14,0.84,3.04,2.04,5.29,2.04c2.25,0,4.15-1.2,5.29-2.04c0.03-0.02,0.05-0.04,0.08-0.06
					C19.48,38.53,20.59,37.39,22,36.99z"/>
				<path class="st1" d="M23.79,45.22c2.94,0,5.32-2.38,5.32-5.32c0-1.37-0.52-2.62-1.37-3.57c-0.84-0.55-1.83-0.87-2.91-0.87
					c-0.02,0-0.04,0-0.07,0l0,0H13.75H2.74l0,0c-0.02,0-0.04,0-0.07,0c-2.94,0-5.32,2.38-5.32,5.32c0,1.37,0.52,2.62,1.37,3.57
					c0.84,0.55,1.83,0.87,2.91,0.87c0.56,0,1.09-0.09,1.59-0.24c0.9-0.21,1.68-0.71,2.25-1.4c0.59-0.71,0.94-1.63,0.94-2.62
					c0-1.01-0.36-1.93-0.96-2.65c-0.31-0.18-0.64-0.33-0.99-0.43c0.06,0.01,0.12,0.02,0.18,0.03c0,0,0.01,0,0.01,0
					c0.06,0.01,0.11,0.02,0.17,0.04c0.01,0,0.01,0,0.02,0.01c0.06,0.01,0.11,0.03,0.17,0.05c0.01,0,0.02,0,0.02,0.01
					c0.06,0.02,0.11,0.04,0.17,0.05c0.01,0,0.01,0.01,0.02,0.01c0,0,0.01,0,0.01,0c-0.5-0.51-1.12-0.89-1.82-1.09
					C3.48,37,3.54,37.01,3.6,37.02c0,0,0.01,0,0.01,0c0.06,0.01,0.11,0.02,0.17,0.04c0.01,0,0.01,0,0.02,0.01
					c0.06,0.01,0.11,0.03,0.17,0.05c0.01,0,0.02,0,0.02,0.01c0.06,0.02,0.11,0.04,0.17,0.05c0.01,0,0.01,0.01,0.02,0.01
					c0.06,0.02,0.12,0.04,0.17,0.07c0.01,0,0.01,0,0.02,0.01c0.06,0.02,0.12,0.05,0.19,0.08c0,0,0,0,0,0
					c0.46,0.2,0.95,0.49,1.5,0.86c0,0,0.01,0.01,0.01,0.01c0.07,0.05,0.15,0.1,0.22,0.15c0.01,0,0.01,0.01,0.02,0.01
					c0.08,0.05,0.15,0.1,0.23,0.16c0,0,0.01,0.01,0.01,0.01c0.08,0.06,0.16,0.12,0.25,0.18c0.19,0.14,0.39,0.28,0.6,0.43
					c1.14,0.84,3.04,2.04,5.29,2.04c2.25,0,4.15-1.2,5.29-2.04c0.21-0.15,0.41-0.3,0.6-0.43c0.08-0.06,0.17-0.12,0.25-0.18
					c0,0,0.01-0.01,0.01-0.01c0.08-0.05,0.15-0.11,0.23-0.16c0.01,0,0.01-0.01,0.02-0.01c0.08-0.05,0.15-0.1,0.22-0.15
					c0,0,0.01-0.01,0.01-0.01c0.55-0.36,1.04-0.65,1.5-0.86c0,0,0,0,0,0c0.06-0.03,0.13-0.05,0.19-0.08c0.01,0,0.01,0,0.02-0.01
					c0.06-0.02,0.12-0.04,0.17-0.07c0.01,0,0.01-0.01,0.02-0.01c0.06-0.02,0.11-0.04,0.17-0.05c0.01,0,0.02,0,0.02-0.01
					c0.06-0.02,0.11-0.03,0.17-0.05c0.01,0,0.01,0,0.02-0.01c0.06-0.01,0.11-0.03,0.17-0.04c0,0,0.01,0,0.01,0
					c0.06-0.01,0.12-0.02,0.18-0.03c-1.42,0.4-2.52,1.54-2.88,2.98c0.18-0.13,0.35-0.25,0.52-0.37c0.08-0.06,0.17-0.12,0.25-0.18
					c0,0,0.01-0.01,0.01-0.01c0.08-0.05,0.15-0.11,0.23-0.16c0.01,0,0.01-0.01,0.02-0.01c0.08-0.05,0.15-0.1,0.22-0.15
					c0,0,0.01-0.01,0.01-0.01c0.55-0.36,1.04-0.65,1.5-0.86c0,0,0,0,0,0c0.06-0.03,0.13-0.05,0.19-0.08c0.01,0,0.01,0,0.02-0.01
					c0.06-0.02,0.12-0.04,0.17-0.07c0.01,0,0.01-0.01,0.02-0.01c0.06-0.02,0.11-0.04,0.17-0.05c0.01,0,0.02,0,0.02-0.01
					c0.06-0.02,0.11-0.03,0.17-0.05c0.01,0,0.01,0,0.02-0.01c0.06-0.01,0.11-0.03,0.17-0.04c0,0,0.01,0,0.01,0
					c0.06-0.01,0.12-0.02,0.18-0.03c-1.73,0.49-3,2.08-3,3.97c0,1,0.35,1.91,0.94,2.62c0.01,0.01,0.02,0.02,0.02,0.02
					c0.36,0.22,0.76,0.38,1.18,0.48C22.7,45.13,23.23,45.22,23.79,45.22z"/>
				<g>
					<g>
						<path class="st2" d="M13.75,39.78c-1.84,0-3.71-0.72-5.73-2.2c-0.22-0.16-0.43-0.31-0.63-0.46c-0.09-0.06-0.18-0.13-0.26-0.19
							l0.08-0.15l-0.1,0.14c-0.08-0.06-0.16-0.11-0.24-0.17l-0.02-0.01c-0.08-0.05-0.16-0.11-0.24-0.16l-0.01-0.01
							c-0.62-0.41-1.12-0.69-1.57-0.9c0,0-0.01,0-0.01-0.01c-0.06-0.03-0.12-0.05-0.19-0.08l0.04-0.16L4.8,35.58
							c-0.06-0.02-0.12-0.05-0.18-0.07L4.6,35.51c-0.06-0.02-0.12-0.04-0.17-0.06L4.4,35.44c-0.06-0.02-0.11-0.03-0.17-0.05
							c0,0-0.01,0-0.01,0c-0.07-0.02-0.13-0.03-0.18-0.04c-0.09-0.02-0.15-0.11-0.13-0.2c0.02-0.09,0.11-0.15,0.2-0.13
							c0.06,0.01,0.13,0.03,0.19,0.04c0,0,0.01,0,0.01,0c0.07,0.02,0.13,0.04,0.19,0.05l0.03,0.01c0.06,0.02,0.12,0.04,0.18,0.06
							l0.03,0.01c0.06,0.02,0.13,0.05,0.19,0.07l0.02,0.01c0.07,0.03,0.14,0.06,0.2,0.09c0.48,0.21,1,0.51,1.63,0.93
							c0,0,0.01,0.01,0.01,0.01c0.08,0.05,0.16,0.11,0.24,0.16l0.02,0.01c0.08,0.06,0.16,0.11,0.25,0.17c0,0,0.02,0.01,0.02,0.01
							c0.09,0.06,0.18,0.12,0.27,0.19c0.2,0.15,0.42,0.3,0.64,0.46c1.96,1.44,3.77,2.14,5.54,2.14c1.76,0,3.57-0.7,5.54-2.14
							c0.22-0.16,0.43-0.32,0.64-0.46c0.09-0.06,0.18-0.13,0.27-0.19l0.02-0.01c0.08-0.06,0.16-0.11,0.25-0.17l0.02-0.01
							c0.08-0.06,0.16-0.11,0.24-0.16c0,0,0.01-0.01,0.01-0.01c0.63-0.42,1.15-0.71,1.62-0.92c0.07-0.03,0.14-0.06,0.21-0.09
							c0,0,0.01,0,0.01,0c0.07-0.03,0.13-0.05,0.2-0.07l0.03-0.01c0.06-0.02,0.12-0.04,0.18-0.06L23,35.13
							c0.06-0.02,0.12-0.04,0.18-0.05l0.02-0.01c0.06-0.02,0.13-0.03,0.19-0.04l0.02,0c0.07-0.01,0.13-0.02,0.2-0.03
							c0.09-0.01,0.18,0.05,0.19,0.14c0.01,0.09-0.05,0.18-0.14,0.19c-0.06,0.01-0.12,0.02-0.19,0.03l-0.05-0.16l0.03,0.16
							c-0.06,0.01-0.12,0.02-0.17,0.04l-0.02,0.01c-0.06,0.01-0.11,0.03-0.17,0.05l-0.02,0.01c-0.06,0.02-0.11,0.04-0.17,0.06
							l-0.02,0.01c-0.06,0.02-0.12,0.04-0.18,0.07l-0.08-0.15l0.06,0.15c-0.06,0.03-0.13,0.05-0.19,0.08
							c-0.46,0.2-0.96,0.49-1.58,0.9l-0.02,0.01c-0.08,0.05-0.15,0.1-0.24,0.16l-0.02,0.01c-0.08,0.05-0.16,0.11-0.24,0.17
							l-0.02,0.01c-0.09,0.06-0.17,0.12-0.26,0.19c-0.2,0.15-0.41,0.3-0.63,0.46C17.46,39.06,15.59,39.78,13.75,39.78z"/>
					</g>
					<g>
						<path class="st2" d="M13.76,38.56c-1.62,0-3.27-0.53-5.05-1.62c-0.19-0.12-0.38-0.23-0.56-0.34C8.08,36.55,8,36.5,7.93,36.46
							l-0.01-0.01c-0.07-0.04-0.14-0.08-0.22-0.12l0.07-0.15l-0.08,0.14c-0.07-0.04-0.14-0.08-0.21-0.12c0,0-0.01-0.01-0.01-0.01
							c-0.54-0.3-0.98-0.51-1.38-0.66c-0.06-0.02-0.12-0.04-0.18-0.06l0.04-0.16l-0.05,0.16c-0.05-0.02-0.11-0.03-0.16-0.05
							l-0.02-0.01c-0.05-0.01-0.1-0.03-0.15-0.04l-0.02,0c-0.05-0.01-0.1-0.03-0.15-0.04l0.01-0.17l-0.03,0.16
							c-0.05-0.01-0.1-0.02-0.15-0.03c-0.09-0.02-0.15-0.1-0.14-0.19c0.02-0.09,0.1-0.15,0.19-0.14c0.06,0.01,0.11,0.02,0.17,0.03
							c0,0,0.02,0,0.02,0c0.05,0.01,0.11,0.02,0.16,0.04l0.02,0.01c0.05,0.01,0.11,0.03,0.16,0.04l0.02,0.01
							c0.06,0.02,0.11,0.03,0.17,0.05l-0.04,0.16l0.05-0.16c0.06,0.02,0.12,0.04,0.18,0.06c0.42,0.16,0.88,0.37,1.44,0.68l0.01,0.01
							c0.07,0.04,0.14,0.08,0.21,0.12l0.02,0.01c0.07,0.04,0.14,0.08,0.22,0.13l0.01,0.01c0.08,0.05,0.16,0.09,0.24,0.14
							c0.18,0.11,0.37,0.22,0.56,0.34c1.73,1.06,3.32,1.57,4.87,1.57c1.55,0,3.15-0.52,4.87-1.57c0.2-0.12,0.38-0.23,0.56-0.34
							c0.08-0.05,0.16-0.09,0.23-0.14l0.01-0.01c0.07-0.04,0.15-0.08,0.22-0.13l0.02-0.01c0.07-0.04,0.14-0.08,0.21-0.12l0.01-0.01
							c0.56-0.31,1.01-0.53,1.43-0.68c0.07-0.02,0.13-0.05,0.19-0.07c0,0,0.02-0.01,0.02-0.01c0.06-0.02,0.11-0.04,0.17-0.05
							l0.02-0.01c0.05-0.02,0.11-0.03,0.16-0.04l0.02,0c0.06-0.01,0.11-0.03,0.17-0.04l0.02,0c0.05-0.01,0.11-0.02,0.16-0.03
							l0.04,0.16l-0.03-0.16c0.06-0.01,0.12-0.02,0.18-0.03c0.09-0.01,0.17,0.05,0.18,0.14c0.01,0.09-0.05,0.17-0.14,0.18
							c-0.06,0.01-0.11,0.01-0.17,0.02l-0.04-0.16l0.03,0.16c-0.05,0.01-0.1,0.02-0.15,0.03l-0.05-0.16l0.03,0.16
							c-0.05,0.01-0.1,0.02-0.15,0.03l-0.02,0.01c-0.05,0.01-0.1,0.03-0.15,0.04l-0.02,0.01c-0.05,0.02-0.1,0.03-0.16,0.05
							l-0.07-0.15l0.05,0.16c-0.06,0.02-0.11,0.04-0.17,0.06c-0.41,0.15-0.85,0.36-1.39,0.66l-0.09-0.14l0.08,0.15
							c-0.07,0.04-0.14,0.08-0.21,0.12l-0.1-0.13l0.08,0.14c-0.07,0.04-0.14,0.08-0.21,0.12l-0.01,0.01
							c-0.08,0.04-0.15,0.09-0.23,0.14c-0.18,0.11-0.36,0.22-0.56,0.34C17.03,38.03,15.38,38.56,13.76,38.56z"/>
					</g>
					<g>
						<path class="st2" d="M13.78,37.4c-1.3,0-2.62-0.34-4.06-1.03c-0.16-0.08-0.3-0.15-0.45-0.21c-0.06-0.03-0.13-0.06-0.19-0.09
							c0,0-0.01-0.01-0.01-0.01c-0.06-0.03-0.11-0.05-0.17-0.08l-0.01-0.01c-0.06-0.02-0.11-0.05-0.17-0.07
							c-0.44-0.19-0.8-0.33-1.12-0.42c-0.05-0.01-0.09-0.03-0.14-0.04l0.03-0.16l-0.04,0.16c-0.04-0.01-0.08-0.02-0.13-0.03
							l0.02-0.17l-0.04,0.16c-0.04-0.01-0.08-0.02-0.12-0.03l-0.02,0c-0.04-0.01-0.08-0.02-0.12-0.02c0,0-0.01,0-0.02,0
							C7,35.35,6.96,35.34,6.91,35.33c-0.09-0.01-0.15-0.1-0.14-0.19c0.01-0.09,0.1-0.15,0.19-0.14c0.04,0.01,0.09,0.01,0.13,0.02
							l0.02,0c0.04,0.01,0.09,0.02,0.13,0.02l0.02,0c0.04,0.01,0.09,0.02,0.13,0.03c0,0,0.02,0,0.02,0
							c0.04,0.01,0.09,0.02,0.13,0.03l-0.03,0.16l0.04-0.16c0.05,0.01,0.1,0.03,0.15,0.04c0.34,0.1,0.71,0.24,1.15,0.43
							c0.07,0.03,0.12,0.05,0.18,0.08l0.01,0.01c0.06,0.03,0.11,0.05,0.17,0.08c0,0,0.01,0.01,0.01,0.01
							c0.06,0.03,0.12,0.06,0.19,0.09c0.15,0.07,0.29,0.14,0.45,0.22c1.39,0.67,2.66,1,3.91,1c1.25,0,2.53-0.33,3.91-1
							c0.16-0.08,0.31-0.15,0.45-0.22c0.06-0.03,0.13-0.06,0.19-0.09c0.07-0.03,0.13-0.06,0.19-0.08l0.01-0.01
							c0.06-0.03,0.11-0.05,0.17-0.08c0.46-0.2,0.82-0.34,1.16-0.44c0.05-0.02,0.1-0.03,0.15-0.04c0,0,0.01,0,0.01,0
							c0.05-0.01,0.09-0.02,0.13-0.03c0,0,0.02,0,0.02,0c0.04-0.01,0.09-0.02,0.13-0.03l0.02,0c0.04-0.01,0.09-0.02,0.13-0.02
							l0.02,0c0.04-0.01,0.09-0.01,0.13-0.02c0.06-0.01,0.11-0.01,0.16-0.02c0.09-0.01,0.17,0.06,0.18,0.15
							c0.01,0.09-0.06,0.17-0.15,0.18c-0.04,0-0.09,0.01-0.13,0.02c-0.05,0.01-0.09,0.01-0.13,0.02l-0.01,0
							c-0.04,0.01-0.08,0.01-0.12,0.02l-0.02,0c-0.04,0.01-0.08,0.02-0.12,0.03l-0.05-0.16l0.04,0.16
							c-0.04,0.01-0.08,0.02-0.13,0.03l-0.05-0.16l0.04,0.16c-0.05,0.01-0.09,0.02-0.14,0.04c-0.33,0.1-0.68,0.23-1.11,0.42
							c-0.06,0.03-0.12,0.05-0.18,0.08l-0.01,0.01c-0.06,0.03-0.11,0.05-0.17,0.08c-0.07,0.03-0.13,0.06-0.2,0.09
							c-0.14,0.07-0.29,0.14-0.45,0.21C16.41,37.06,15.08,37.4,13.78,37.4z"/>
					</g>
					<g>
						<path class="st2" d="M24.32,43.93c-0.44,0-0.88-0.11-1.28-0.33c-1.04-0.58-1.42-1.9-0.85-2.94c0.23-0.41,0.6-0.71,1.06-0.84
							c0.45-0.13,0.93-0.08,1.34,0.15c0.7,0.39,0.95,1.27,0.57,1.96c-0.15,0.28-0.41,0.48-0.71,0.57c-0.31,0.09-0.63,0.05-0.9-0.1
							c-0.23-0.13-0.4-0.34-0.47-0.59c-0.07-0.25-0.04-0.52,0.08-0.75c0.22-0.4,0.72-0.54,1.12-0.32c0.16,0.09,0.28,0.24,0.33,0.41
							c0.05,0.18,0.03,0.36-0.06,0.52c-0.04,0.08-0.15,0.11-0.23,0.07c-0.08-0.04-0.11-0.15-0.07-0.23
							c0.05-0.08,0.06-0.18,0.03-0.27c-0.03-0.09-0.09-0.17-0.17-0.21c-0.24-0.13-0.53-0.04-0.66,0.19c-0.08,0.15-0.1,0.33-0.06,0.5
							c0.05,0.17,0.16,0.31,0.31,0.39c0.2,0.11,0.43,0.14,0.65,0.07c0.22-0.06,0.4-0.21,0.51-0.41c0.14-0.26,0.18-0.56,0.1-0.85
							c-0.08-0.29-0.27-0.52-0.53-0.67c-0.34-0.19-0.72-0.23-1.09-0.12c-0.37,0.11-0.67,0.35-0.86,0.68c-0.49,0.88-0.17,2,0.72,2.49
							c1.13,0.62,2.55,0.21,3.17-0.91c0.43-0.77,0.51-1.72,0.22-2.54c-0.24-0.69-0.73-1.21-1.36-1.47
							c-2.15-0.87-3.37-0.21-6.08,1.78c-1.9,1.39-3.66,2.07-5.39,2.07c-0.09,0-0.17-0.07-0.17-0.17c0-0.09,0.07-0.17,0.17-0.17
							c1.65,0,3.35-0.66,5.19-2.01c2.76-2.02,4.11-2.75,6.4-1.82c0.72,0.29,1.27,0.88,1.54,1.66c0.32,0.91,0.23,1.96-0.24,2.81
							C26.17,43.43,25.26,43.93,24.32,43.93z"/>
					</g>
					<g>
						<path class="st2" d="M3.19,43.93c-0.94,0-1.85-0.5-2.34-1.37c-0.47-0.85-0.56-1.9-0.24-2.81c0.28-0.78,0.82-1.37,1.54-1.66
							c2.29-0.93,3.65-0.2,6.4,1.82c1.84,1.35,3.54,2.01,5.19,2.01c0.09,0,0.17,0.07,0.17,0.17c0,0.09-0.07,0.17-0.17,0.17
							c-1.73,0-3.49-0.68-5.39-2.07c-2.71-1.99-3.93-2.65-6.08-1.78c-0.63,0.26-1.11,0.78-1.36,1.47c-0.29,0.82-0.21,1.77,0.22,2.54
							c0.62,1.13,2.04,1.53,3.17,0.91c0.88-0.49,1.21-1.61,0.72-2.49c-0.19-0.33-0.49-0.58-0.86-0.68
							c-0.37-0.11-0.75-0.06-1.09,0.12c-0.26,0.14-0.45,0.38-0.53,0.67c-0.08,0.29-0.05,0.59,0.1,0.85c0.11,0.2,0.29,0.35,0.51,0.41
							c0.22,0.06,0.45,0.04,0.65-0.07c0.15-0.08,0.26-0.22,0.31-0.39c0.05-0.17,0.03-0.34-0.06-0.5c-0.13-0.24-0.43-0.32-0.66-0.19
							c-0.08,0.05-0.14,0.12-0.17,0.21c-0.03,0.09-0.02,0.19,0.03,0.27c0.04,0.08,0.02,0.18-0.07,0.23
							c-0.08,0.04-0.18,0.02-0.23-0.07c-0.09-0.16-0.11-0.35-0.06-0.52c0.05-0.18,0.17-0.32,0.33-0.41c0.4-0.22,0.9-0.07,1.12,0.32
							c0.13,0.23,0.16,0.5,0.08,0.75c-0.07,0.25-0.24,0.46-0.47,0.59c-0.28,0.15-0.6,0.19-0.9,0.1c-0.31-0.09-0.56-0.29-0.71-0.57
							c-0.39-0.7-0.13-1.58,0.57-1.96c0.41-0.23,0.89-0.28,1.34-0.15c0.45,0.13,0.83,0.43,1.06,0.84c0.58,1.04,0.2,2.36-0.85,2.94
							C4.06,43.82,3.62,43.93,3.19,43.93z"/>
					</g>
				</g>
			</g>
			<polygon class="st2" points="1.36,33.99 26.15,33.99 25.57,35.54 1.93,35.54 			"/>
			<path class="st1" d="M0.37,32.44h26.75l-0.19,1.07c-0.05,0.28-0.3,0.49-0.58,0.49H1.15c-0.29,0-0.53-0.2-0.58-0.49L0.37,32.44z"
				/>
		</g>
	</g>
	<g id="columns_00000127731049046412050240000009663655354208349355_">
		<g>
			<rect x="34.62" y="48.32" class="st1" width="19.22" height="42.16"/>
			<g>
				<path class="st2" d="M50.81,49.93c-0.39,0.14-0.68,0.51-0.68,0.95v39.61h-0.66V50.88c0-0.56,0.45-1.01,1.01-1.01
					C50.59,49.87,50.7,49.89,50.81,49.93z"/>
				<path class="st2" d="M47.69,49.93c-0.39,0.14-0.68,0.51-0.68,0.95v39.61h-0.66V50.88c0-0.56,0.45-1.01,1.01-1.01
					C47.47,49.87,47.58,49.89,47.69,49.93z"/>
				<path class="st2" d="M44.56,49.93c-0.39,0.14-0.68,0.51-0.68,0.95v39.61h-0.66V50.88c0-0.56,0.45-1.01,1.01-1.01
					C44.35,49.87,44.46,49.89,44.56,49.93z"/>
				<path class="st2" d="M41.44,49.93c-0.39,0.14-0.68,0.51-0.68,0.95v39.61H40.1V50.88c0-0.56,0.45-1.01,1.01-1.01
					C41.23,49.87,41.34,49.89,41.44,49.93z"/>
				<path class="st2" d="M38.32,49.93c-0.39,0.14-0.68,0.51-0.68,0.95v39.61h-0.66V50.88c0-0.56,0.45-1.01,1.01-1.01
					C38.11,49.87,38.22,49.89,38.32,49.93z"/>
				<path class="st0" d="M51.48,50.88v39.61h-1.35V50.88c0-0.44,0.28-0.81,0.68-0.95C51.2,50.06,51.48,50.44,51.48,50.88z"/>
				<path class="st0" d="M48.36,50.88v39.61h-1.35V50.88c0-0.44,0.28-0.81,0.68-0.95C48.08,50.06,48.36,50.44,48.36,50.88z"/>
				<path class="st0" d="M45.24,50.88v39.61h-1.35V50.88c0-0.44,0.28-0.81,0.68-0.95C44.96,50.06,45.24,50.44,45.24,50.88z"/>
				<path class="st0" d="M42.12,50.88v39.61h-1.35V50.88c0-0.44,0.28-0.81,0.68-0.95C41.84,50.06,42.12,50.44,42.12,50.88z"/>
				<path class="st0" d="M39,50.88v39.61h-1.35V50.88c0-0.44,0.28-0.81,0.68-0.95C38.72,50.06,39,50.44,39,50.88z"/>
			</g>
			<rect x="34.62" y="39.8" class="st2" width="19.22" height="7.38"/>
			<g>
				<rect x="34.62" y="47.18" class="st2" width="19.22" height="1.28"/>
			</g>
			<g>
				<path class="st1" d="M57.77,39.23c0.83,0.91,1.33,2.12,1.33,3.45c0,2.85-2.31,5.15-5.15,5.15c-0.54,0-1.06-0.08-1.54-0.24
					c-0.41-0.1-0.79-0.26-1.15-0.47c0.55,0.65,1.3,1.13,2.15,1.33c0.49,0.15,1.01,0.24,1.54,0.24c2.85,0,5.15-2.31,5.15-5.15
					C60.11,41.74,59.18,40.15,57.77,39.23z"/>
				<path class="st1" d="M36.22,46.25c-0.55,0.67-1.31,1.15-2.18,1.35c-0.49,0.15-1.01,0.24-1.54,0.24c-1.04,0-2.01-0.31-2.81-0.84
					c0.94,1.04,2.31,1.7,3.82,1.7c0.54,0,1.06-0.08,1.54-0.24c0.87-0.2,1.63-0.69,2.18-1.35c0.57-0.69,0.91-1.57,0.91-2.54
					c0-1.46-0.78-2.73-1.94-3.43c0.58,0.69,0.93,1.59,0.93,2.56C37.13,44.67,36.79,45.56,36.22,46.25z"/>
				<path class="st1" d="M52.22,39.86c-0.06,0.01-0.12,0.02-0.18,0.03c0,0-0.01,0-0.01,0c-0.05,0.01-0.11,0.02-0.17,0.04
					c-0.01,0-0.01,0-0.02,0.01c-0.05,0.01-0.11,0.03-0.16,0.04c-0.01,0-0.02,0-0.02,0.01c-0.05,0.02-0.11,0.03-0.16,0.05
					c-0.01,0-0.01,0.01-0.02,0.01c-0.06,0.02-0.11,0.04-0.17,0.06c-0.01,0-0.01,0-0.02,0.01c-0.06,0.02-0.12,0.05-0.18,0.08
					c0,0,0,0,0,0c-0.45,0.2-0.92,0.47-1.45,0.83c0,0-0.01,0.01-0.01,0.01c-0.07,0.05-0.14,0.1-0.22,0.15
					c-0.01,0-0.01,0.01-0.02,0.01c-0.07,0.05-0.15,0.1-0.22,0.15c0,0-0.01,0.01-0.01,0.01c-0.08,0.06-0.16,0.11-0.24,0.17
					c-0.19,0.13-0.38,0.27-0.58,0.42c-1.11,0.81-2.95,1.97-5.12,1.97c-2.18,0-4.02-1.16-5.12-1.97c-0.2-0.15-0.39-0.29-0.58-0.42
					c-0.08-0.06-0.16-0.11-0.24-0.17c0,0-0.01-0.01-0.01-0.01c-0.08-0.05-0.15-0.1-0.22-0.15c-0.01,0-0.01-0.01-0.02-0.01
					c-0.07-0.05-0.15-0.1-0.22-0.15c0,0-0.01-0.01-0.01-0.01c-0.53-0.35-1.01-0.63-1.45-0.83c0,0,0,0,0,0
					c-0.06-0.03-0.12-0.05-0.18-0.08c-0.01,0-0.01,0-0.02-0.01c-0.06-0.02-0.11-0.04-0.17-0.06c-0.01,0-0.01-0.01-0.02-0.01
					c-0.05-0.02-0.11-0.04-0.16-0.05c-0.01,0-0.02,0-0.02-0.01c-0.05-0.02-0.11-0.03-0.16-0.04c-0.01,0-0.01,0-0.02-0.01
					c-0.06-0.01-0.11-0.03-0.17-0.04c0,0-0.01,0-0.01,0c-0.06-0.01-0.12-0.02-0.18-0.03c0.68,0.19,1.28,0.56,1.76,1.05
					c0.05,0.02,0.1,0.04,0.16,0.06c0.01,0,0.01,0,0.02,0.01c0.06,0.02,0.12,0.05,0.18,0.08c0,0,0,0,0,0
					c0.45,0.2,0.92,0.47,1.45,0.83c0,0,0.01,0.01,0.01,0.01c0.07,0.05,0.14,0.1,0.22,0.15c0.01,0,0.01,0.01,0.02,0.01
					c0.07,0.05,0.15,0.1,0.22,0.15c0,0,0.01,0.01,0.01,0.01c0.08,0.06,0.16,0.11,0.24,0.17c0.19,0.13,0.38,0.27,0.58,0.42
					c1.11,0.81,2.95,1.97,5.12,1.97c2.18,0,4.02-1.16,5.12-1.97c0.03-0.02,0.05-0.04,0.08-0.06C49.78,41.36,50.85,40.25,52.22,39.86
					z"/>
				<path class="st1" d="M53.95,47.83c2.85,0,5.15-2.31,5.15-5.15c0-1.33-0.5-2.54-1.33-3.45c-0.81-0.53-1.78-0.84-2.81-0.84
					c-0.02,0-0.04,0-0.06,0l0,0H44.23H33.57l0,0c-0.02,0-0.04,0-0.06,0c-2.85,0-5.15,2.31-5.15,5.15c0,1.33,0.5,2.54,1.33,3.45
					c0.81,0.53,1.78,0.84,2.81,0.84c0.54,0,1.06-0.08,1.54-0.24c0.87-0.2,1.63-0.69,2.18-1.35c0.57-0.69,0.91-1.57,0.91-2.54
					c0-0.98-0.35-1.87-0.93-2.56c-0.3-0.18-0.62-0.32-0.96-0.42c0.06,0.01,0.12,0.02,0.18,0.03c0,0,0.01,0,0.01,0
					c0.05,0.01,0.11,0.02,0.17,0.04c0.01,0,0.01,0,0.02,0.01c0.05,0.01,0.11,0.03,0.16,0.04c0.01,0,0.02,0,0.02,0.01
					c0.05,0.02,0.11,0.03,0.16,0.05c0.01,0,0.01,0.01,0.02,0.01c0,0,0.01,0,0.01,0c-0.48-0.49-1.09-0.86-1.76-1.05
					c0.06,0.01,0.12,0.02,0.18,0.03c0,0,0.01,0,0.01,0c0.05,0.01,0.11,0.02,0.17,0.04c0.01,0,0.01,0,0.02,0.01
					c0.05,0.01,0.11,0.03,0.16,0.04c0.01,0,0.02,0,0.02,0.01c0.05,0.02,0.11,0.03,0.16,0.05c0.01,0,0.01,0.01,0.02,0.01
					c0.06,0.02,0.11,0.04,0.17,0.06c0.01,0,0.01,0,0.02,0.01c0.06,0.02,0.12,0.05,0.18,0.08c0,0,0,0,0,0
					c0.45,0.2,0.92,0.47,1.45,0.83c0,0,0.01,0.01,0.01,0.01c0.07,0.05,0.14,0.1,0.22,0.15c0.01,0,0.01,0.01,0.02,0.01
					c0.07,0.05,0.15,0.1,0.22,0.15c0,0,0.01,0.01,0.01,0.01c0.08,0.06,0.16,0.11,0.24,0.17c0.19,0.13,0.38,0.27,0.58,0.42
					c1.11,0.81,2.95,1.97,5.12,1.97c2.18,0,4.02-1.16,5.12-1.97c0.2-0.15,0.39-0.29,0.58-0.42c0.08-0.06,0.16-0.11,0.24-0.17
					c0,0,0.01-0.01,0.01-0.01c0.08-0.05,0.15-0.1,0.22-0.15c0.01,0,0.01-0.01,0.02-0.01c0.07-0.05,0.15-0.1,0.22-0.15
					c0,0,0.01-0.01,0.01-0.01c0.53-0.35,1.01-0.63,1.45-0.83c0,0,0,0,0,0c0.06-0.03,0.12-0.05,0.18-0.08c0.01,0,0.01,0,0.02-0.01
					c0.06-0.02,0.11-0.04,0.17-0.06c0.01,0,0.01-0.01,0.02-0.01c0.05-0.02,0.11-0.04,0.16-0.05c0.01,0,0.02,0,0.02-0.01
					c0.05-0.02,0.11-0.03,0.16-0.04c0.01,0,0.01,0,0.02-0.01c0.06-0.01,0.11-0.03,0.17-0.04c0,0,0.01,0,0.01,0
					c0.06-0.01,0.12-0.02,0.18-0.03c-1.37,0.39-2.44,1.49-2.78,2.89c0.17-0.13,0.34-0.25,0.5-0.36c0.08-0.06,0.16-0.11,0.24-0.17
					c0,0,0.01-0.01,0.01-0.01c0.08-0.05,0.15-0.1,0.22-0.15c0.01,0,0.01-0.01,0.02-0.01c0.07-0.05,0.15-0.1,0.22-0.15
					c0,0,0.01-0.01,0.01-0.01c0.53-0.35,1.01-0.63,1.45-0.83c0,0,0,0,0,0c0.06-0.03,0.12-0.05,0.18-0.08c0.01,0,0.01,0,0.02-0.01
					c0.06-0.02,0.11-0.04,0.17-0.06c0.01,0,0.01-0.01,0.02-0.01c0.05-0.02,0.11-0.04,0.16-0.05c0.01,0,0.02,0,0.02-0.01
					c0.05-0.02,0.11-0.03,0.16-0.04c0.01,0,0.01,0,0.02-0.01c0.06-0.01,0.11-0.03,0.17-0.04c0,0,0.01,0,0.01,0
					c0.06-0.01,0.12-0.02,0.18-0.03c-1.67,0.48-2.9,2.02-2.9,3.84c0,0.96,0.34,1.85,0.91,2.54c0.01,0.01,0.01,0.02,0.02,0.02
					c0.35,0.21,0.74,0.37,1.15,0.47C52.89,47.75,53.41,47.83,53.95,47.83z"/>
				<g>
					<g>
						<path class="st2" d="M44.23,42.57c-1.78,0-3.59-0.7-5.55-2.13c-0.21-0.16-0.42-0.3-0.61-0.44c-0.09-0.06-0.17-0.12-0.26-0.18
							l0.08-0.14L37.8,39.8c-0.08-0.06-0.16-0.11-0.24-0.16l-0.02-0.01c-0.08-0.05-0.15-0.1-0.23-0.15l-0.01-0.01
							c-0.6-0.4-1.08-0.67-1.52-0.87c0,0-0.01,0-0.01-0.01c-0.06-0.02-0.12-0.05-0.18-0.08l0.04-0.16l-0.06,0.15
							c-0.06-0.02-0.12-0.04-0.17-0.06l-0.02-0.01c-0.06-0.02-0.11-0.04-0.17-0.05l-0.02-0.01c-0.05-0.02-0.11-0.03-0.16-0.05
							c0,0-0.01,0-0.01,0c-0.07-0.02-0.12-0.03-0.18-0.04c-0.09-0.02-0.14-0.1-0.13-0.19c0.02-0.09,0.1-0.14,0.19-0.13
							c0.06,0.01,0.12,0.03,0.18,0.04c0,0,0.01,0,0.01,0c0.07,0.02,0.13,0.03,0.19,0.05l0.03,0.01c0.06,0.02,0.12,0.04,0.18,0.06
							l0.03,0.01c0.06,0.02,0.12,0.04,0.18,0.07l0.02,0.01c0.07,0.03,0.13,0.05,0.2,0.08c0.46,0.21,0.96,0.49,1.58,0.9
							c0,0,0.01,0.01,0.01,0.01c0.08,0.05,0.15,0.1,0.23,0.16l0.02,0.01c0.08,0.05,0.16,0.11,0.24,0.17c0,0,0.02,0.01,0.02,0.01
							c0.08,0.06,0.17,0.12,0.26,0.18c0.2,0.14,0.4,0.29,0.62,0.45c1.9,1.39,3.65,2.07,5.36,2.07c1.71,0,3.46-0.68,5.36-2.07
							c0.21-0.16,0.42-0.31,0.62-0.45c0.09-0.06,0.17-0.12,0.26-0.18l0.02-0.01c0.08-0.06,0.16-0.11,0.24-0.16l0.02-0.01
							c0.08-0.05,0.16-0.11,0.23-0.16c0,0,0.01-0.01,0.01-0.01c0.61-0.41,1.11-0.69,1.57-0.89c0.07-0.03,0.14-0.06,0.2-0.09
							c0,0,0.01,0,0.01,0c0.07-0.03,0.13-0.05,0.19-0.07l0.02-0.01c0.06-0.02,0.12-0.04,0.18-0.06l0.02-0.01
							c0.06-0.02,0.12-0.03,0.18-0.05l0.02-0.01c0.06-0.02,0.12-0.03,0.18-0.04l0.02,0c0.06-0.01,0.13-0.02,0.2-0.03
							c0.09-0.01,0.17,0.05,0.18,0.14c0.01,0.09-0.05,0.17-0.14,0.18c-0.06,0.01-0.12,0.02-0.18,0.03l-0.05-0.15l0.03,0.16
							c-0.06,0.01-0.11,0.02-0.17,0.04l-0.02,0.01c-0.05,0.01-0.11,0.03-0.16,0.05l-0.02,0.01c-0.06,0.02-0.11,0.04-0.17,0.05
							l-0.02,0.01c-0.06,0.02-0.12,0.04-0.17,0.07l-0.08-0.14l0.06,0.15c-0.06,0.02-0.12,0.05-0.19,0.08
							c-0.45,0.2-0.93,0.47-1.53,0.87l-0.01,0.01c-0.07,0.05-0.15,0.1-0.23,0.15l-0.02,0.01c-0.08,0.05-0.16,0.11-0.24,0.16
							l-0.02,0.01c-0.08,0.06-0.17,0.12-0.26,0.18c-0.2,0.14-0.4,0.29-0.61,0.44C47.82,41.87,46.01,42.57,44.23,42.57z"/>
					</g>
					<g>
						<path class="st2" d="M44.24,41.39c-1.56,0-3.16-0.51-4.88-1.57c-0.19-0.12-0.37-0.22-0.54-0.33
							c-0.08-0.05-0.15-0.09-0.22-0.13l-0.01-0.01c-0.07-0.04-0.14-0.08-0.21-0.12l0.06-0.15l-0.08,0.14
							c-0.07-0.04-0.14-0.08-0.2-0.11c0,0-0.01-0.01-0.01-0.01c-0.53-0.29-0.95-0.49-1.34-0.64c-0.06-0.02-0.11-0.04-0.17-0.06
							l0.04-0.16l-0.05,0.15c-0.05-0.02-0.1-0.03-0.15-0.05l-0.02-0.01c-0.05-0.01-0.1-0.03-0.15-0.04l-0.02,0
							c-0.05-0.01-0.1-0.02-0.15-0.03l0.01-0.16l-0.03,0.16c-0.05-0.01-0.1-0.02-0.15-0.03c-0.09-0.01-0.15-0.1-0.13-0.19
							c0.01-0.09,0.1-0.15,0.19-0.13c0.05,0.01,0.11,0.02,0.16,0.03c0,0,0.02,0,0.02,0c0.05,0.01,0.1,0.02,0.16,0.04l0.02,0.01
							c0.05,0.01,0.1,0.03,0.16,0.04l0.02,0.01c0.05,0.02,0.11,0.03,0.16,0.05l-0.04,0.16l0.05-0.15c0.06,0.02,0.12,0.04,0.17,0.06
							c0.41,0.15,0.85,0.36,1.39,0.66l0.01,0.01c0.07,0.04,0.14,0.08,0.2,0.12l0.02,0.01c0.07,0.04,0.14,0.08,0.21,0.12l0.01,0.01
							c0.08,0.04,0.15,0.09,0.23,0.13c0.17,0.1,0.36,0.21,0.54,0.33c1.67,1.03,3.21,1.52,4.72,1.52c1.5,0,3.05-0.5,4.72-1.52
							c0.19-0.12,0.37-0.23,0.54-0.33c0.08-0.05,0.15-0.09,0.23-0.13l0.01-0.01c0.07-0.04,0.14-0.08,0.21-0.12l0.02-0.01
							c0.07-0.04,0.14-0.08,0.21-0.12l0.01-0.01c0.54-0.3,0.98-0.51,1.38-0.66c0.06-0.02,0.12-0.04,0.18-0.06
							c0,0,0.02-0.01,0.02-0.01c0.05-0.02,0.11-0.03,0.16-0.05l0.02-0.01c0.05-0.02,0.11-0.03,0.16-0.04l0.02,0
							c0.06-0.01,0.11-0.03,0.16-0.04l0.02,0c0.05-0.01,0.11-0.02,0.16-0.03l0.04,0.16l-0.03-0.16c0.06-0.01,0.12-0.02,0.17-0.02
							c0.09-0.01,0.17,0.05,0.18,0.14c0.01,0.09-0.05,0.17-0.14,0.18c-0.05,0.01-0.11,0.01-0.16,0.02l-0.04-0.16l0.03,0.16
							c-0.05,0.01-0.1,0.02-0.15,0.03l-0.05-0.15l0.03,0.16c-0.05,0.01-0.1,0.02-0.15,0.03l-0.02,0c-0.05,0.01-0.1,0.03-0.15,0.04
							l-0.02,0.01c-0.05,0.01-0.1,0.03-0.15,0.05l-0.07-0.15l0.05,0.15c-0.05,0.02-0.11,0.04-0.17,0.06
							c-0.39,0.15-0.82,0.35-1.34,0.64l-0.09-0.13l0.08,0.14c-0.07,0.04-0.13,0.07-0.2,0.11l-0.1-0.13l0.08,0.14
							c-0.07,0.04-0.14,0.08-0.21,0.12l-0.01,0.01c-0.07,0.04-0.15,0.09-0.22,0.13c-0.17,0.1-0.35,0.21-0.54,0.33
							C47.41,40.87,45.81,41.39,44.24,41.39z"/>
					</g>
					<g>
						<path class="st2" d="M44.26,40.27c-1.26,0-2.54-0.33-3.93-1c-0.15-0.07-0.29-0.14-0.43-0.21c-0.06-0.03-0.12-0.06-0.18-0.08
							c0,0-0.01-0.01-0.01-0.01c-0.06-0.03-0.11-0.05-0.17-0.08l-0.01-0.01c-0.05-0.02-0.11-0.05-0.16-0.07
							c-0.43-0.19-0.77-0.32-1.08-0.41c-0.05-0.01-0.09-0.03-0.14-0.04l0.03-0.16l-0.04,0.16c-0.04-0.01-0.08-0.02-0.12-0.03
							l0.02-0.16L38,38.33c-0.04-0.01-0.08-0.02-0.12-0.03l-0.02,0c-0.04-0.01-0.08-0.01-0.12-0.02c0,0-0.01,0-0.01,0
							c-0.04-0.01-0.08-0.01-0.12-0.02c-0.09-0.01-0.15-0.09-0.14-0.18c0.01-0.09,0.09-0.15,0.18-0.14
							c0.04,0.01,0.09,0.01,0.13,0.02l0.02,0c0.04,0.01,0.08,0.01,0.13,0.02l0.02,0c0.04,0.01,0.08,0.02,0.13,0.03
							c0,0,0.02,0,0.02,0c0.04,0.01,0.09,0.02,0.13,0.03l-0.03,0.16l0.04-0.16c0.05,0.01,0.09,0.03,0.14,0.04
							c0.33,0.1,0.68,0.23,1.12,0.42c0.06,0.03,0.12,0.05,0.17,0.08l0.01,0.01c0.05,0.02,0.11,0.05,0.17,0.08
							c0,0,0.01,0.01,0.01,0.01c0.06,0.03,0.12,0.06,0.18,0.08c0.14,0.07,0.29,0.14,0.44,0.21c1.34,0.65,2.58,0.97,3.79,0.97
							c1.21,0,2.45-0.32,3.79-0.97c0.15-0.07,0.3-0.14,0.44-0.21c0.06-0.03,0.12-0.06,0.18-0.09c0.07-0.03,0.12-0.06,0.18-0.08
							l0.01-0.01c0.06-0.03,0.11-0.05,0.16-0.07c0.44-0.19,0.8-0.33,1.12-0.42c0.05-0.01,0.1-0.03,0.14-0.04c0,0,0.01,0,0.01,0
							c0.04-0.01,0.09-0.02,0.13-0.03c0,0,0.02,0,0.02,0c0.04-0.01,0.08-0.02,0.13-0.03l0.02,0c0.04-0.01,0.08-0.02,0.13-0.02
							l0.02,0c0.04-0.01,0.09-0.01,0.13-0.02c0.06-0.01,0.1-0.01,0.15-0.02c0.09-0.01,0.17,0.06,0.18,0.15
							c0.01,0.09-0.06,0.17-0.15,0.18c-0.04,0-0.09,0.01-0.13,0.01c-0.05,0.01-0.09,0.01-0.13,0.02l-0.01,0
							c-0.04,0.01-0.08,0.01-0.12,0.02l-0.02,0c-0.04,0.01-0.08,0.02-0.12,0.03l-0.05-0.15l0.04,0.16
							c-0.04,0.01-0.08,0.02-0.12,0.03l-0.05-0.15l0.04,0.16c-0.04,0.01-0.09,0.02-0.13,0.04c-0.32,0.09-0.66,0.22-1.08,0.41
							c-0.06,0.03-0.12,0.05-0.17,0.08l-0.01,0.01c-0.06,0.03-0.11,0.05-0.17,0.08c-0.07,0.03-0.13,0.06-0.19,0.09
							c-0.14,0.07-0.28,0.13-0.43,0.21C46.8,39.94,45.52,40.27,44.26,40.27z"/>
					</g>
					<g>
						<path class="st2" d="M54.46,46.58c-0.42,0-0.85-0.1-1.24-0.32c-1.01-0.56-1.38-1.84-0.82-2.85c0.22-0.4,0.58-0.69,1.02-0.81
							c0.44-0.13,0.9-0.07,1.3,0.15c0.67,0.37,0.92,1.23,0.55,1.9c-0.15,0.27-0.39,0.46-0.69,0.55c-0.3,0.08-0.61,0.05-0.88-0.1
							c-0.22-0.12-0.38-0.33-0.45-0.57c-0.07-0.24-0.04-0.5,0.08-0.72c0.21-0.38,0.7-0.52,1.08-0.31c0.16,0.09,0.27,0.23,0.32,0.4
							c0.05,0.17,0.03,0.35-0.06,0.51c-0.04,0.08-0.14,0.11-0.22,0.06c-0.08-0.04-0.11-0.14-0.06-0.22
							c0.04-0.08,0.06-0.17,0.03-0.26c-0.03-0.09-0.08-0.16-0.17-0.21c-0.23-0.13-0.52-0.04-0.64,0.19
							c-0.08,0.15-0.1,0.32-0.05,0.48c0.05,0.16,0.15,0.3,0.3,0.38c0.19,0.11,0.42,0.13,0.63,0.07c0.21-0.06,0.39-0.2,0.5-0.4
							c0.14-0.25,0.17-0.54,0.09-0.82c-0.08-0.28-0.26-0.51-0.51-0.64c-0.32-0.18-0.7-0.22-1.05-0.12c-0.36,0.1-0.65,0.34-0.83,0.66
							c-0.47,0.86-0.16,1.94,0.69,2.41c1.09,0.6,2.46,0.21,3.07-0.88c0.41-0.75,0.49-1.67,0.21-2.46c-0.24-0.67-0.7-1.17-1.31-1.42
							c-2.08-0.85-3.27-0.2-5.89,1.72c-1.84,1.35-3.55,2.01-5.22,2.01c-0.09,0-0.16-0.07-0.16-0.16s0.07-0.16,0.16-0.16
							c1.6,0,3.25-0.64,5.03-1.94c2.67-1.96,3.98-2.67,6.2-1.76c0.7,0.28,1.23,0.86,1.49,1.61c0.31,0.88,0.22,1.9-0.23,2.72
							C56.25,46.1,55.37,46.58,54.46,46.58z"/>
					</g>
					<g>
						<path class="st2" d="M34.01,46.58c-0.91,0-1.79-0.48-2.26-1.33c-0.46-0.83-0.54-1.84-0.23-2.72c0.27-0.75,0.8-1.33,1.49-1.61
							c2.22-0.9,3.53-0.2,6.2,1.76c1.78,1.31,3.43,1.94,5.03,1.94c0.09,0,0.16,0.07,0.16,0.16s-0.07,0.16-0.16,0.16
							c-1.67,0-3.38-0.66-5.22-2.01c-2.62-1.92-3.81-2.57-5.89-1.72c-0.61,0.25-1.08,0.75-1.31,1.42c-0.28,0.79-0.2,1.71,0.21,2.46
							c0.6,1.09,1.98,1.49,3.07,0.88c0.86-0.47,1.17-1.55,0.69-2.41c-0.18-0.32-0.47-0.56-0.83-0.66c-0.36-0.1-0.73-0.06-1.05,0.12
							c-0.25,0.14-0.43,0.37-0.51,0.64c-0.08,0.28-0.05,0.57,0.09,0.82c0.11,0.19,0.28,0.33,0.5,0.4c0.21,0.06,0.44,0.04,0.63-0.07
							c0.15-0.08,0.25-0.22,0.3-0.38c0.05-0.16,0.03-0.33-0.05-0.48c-0.13-0.23-0.41-0.31-0.64-0.19c-0.08,0.04-0.14,0.12-0.17,0.21
							c-0.03,0.09-0.02,0.18,0.03,0.26c0.04,0.08,0.01,0.18-0.06,0.22c-0.08,0.04-0.18,0.01-0.22-0.06
							c-0.09-0.16-0.11-0.34-0.06-0.51c0.05-0.17,0.16-0.31,0.32-0.4c0.38-0.21,0.87-0.07,1.08,0.31c0.12,0.22,0.15,0.48,0.08,0.72
							c-0.07,0.24-0.23,0.45-0.45,0.57c-0.27,0.15-0.58,0.18-0.88,0.1c-0.3-0.09-0.54-0.28-0.69-0.55c-0.37-0.67-0.13-1.53,0.55-1.9
							c0.4-0.22,0.86-0.27,1.3-0.15c0.44,0.13,0.8,0.42,1.02,0.81c0.56,1.01,0.19,2.29-0.82,2.85
							C34.85,46.48,34.43,46.58,34.01,46.58z"/>
					</g>
				</g>
			</g>
			<polygon class="st2" points="32.23,36.97 56.23,36.97 55.68,38.47 32.79,38.47 			"/>
			<path class="st1" d="M31.28,35.46h25.9l-0.19,1.03c-0.05,0.27-0.29,0.47-0.56,0.47h-24.4c-0.28,0-0.51-0.2-0.56-0.47L31.28,35.46
				z"/>
		</g>
	</g>
	<g>
		<g>
			<path class="st0" d="M23.76,17.75c-0.45-0.9-1.41-1.43-2.37-1.75c-1.6-0.54-3.39-0.59-3.36-2.67l0.07-3.77H9.07l0.07,3.77
				c0.03,2.08-1.76,2.13-3.36,2.67C4.89,16.3,4,16.78,3.51,17.57c-0.04,0.06-0.07,0.12-0.1,0.18c-0.34,0.68-0.34,1.47-0.26,2.22
				c0.33,3.25,1.86,6.27,3.65,8.95c0.45,0.67,0.92,1.32,1.4,1.96c0.37,0.48,0.74,1.17,1.3,1.45c0,0,0.01,0,0.01,0
				c0.4,0.2,4.08,0.18,4.08,0.18c0,0,0-0.02,0-0.04c0,0.03,0,0.04,0,0.04c0,0,3.68,0.02,4.08-0.18c0.56-0.28,0.94-0.97,1.31-1.45
				c0.49-0.64,0.96-1.29,1.4-1.96c1.79-2.68,3.32-5.7,3.65-8.95C24.1,19.22,24.1,18.43,23.76,17.75z"/>
			<path class="st3" d="M18.1,9.56c0,0.15-2.02,0.28-4.51,0.28c-2.49,0-4.51-0.12-4.51-0.28c0-0.15,2.02-0.28,4.51-0.28
				C16.08,9.28,18.1,9.41,18.1,9.56z"/>
			<path class="st0" d="M21.26,32.33H5.91c-0.43,0-0.78,0.35-0.78,0.78v0.11c0,0.43,0.35,0.78,0.78,0.78h15.36
				c0.43,0,0.78-0.35,0.78-0.78v-0.11C22.04,32.68,21.69,32.33,21.26,32.33z"/>
		</g>
		<g>
			<circle class="st1" cx="13.59" cy="18.41" r="0.42"/>
			<circle class="st1" cx="12.74" cy="18.3" r="0.42"/>
			<circle class="st1" cx="11.91" cy="18.06" r="0.42"/>
			<circle class="st1" cx="11.1" cy="17.72" r="0.42"/>
			<circle class="st1" cx="10.35" cy="17.3" r="0.42"/>
			<circle class="st1" cx="9.64" cy="16.81" r="0.42"/>
			<circle class="st1" cx="9.01" cy="16.21" r="0.42"/>
			<circle class="st1" cx="8.45" cy="15.53" r="0.42"/>
			<circle class="st1" cx="14.43" cy="18.29" r="0.42"/>
			<circle class="st1" cx="15.26" cy="18.06" r="0.42"/>
			<circle class="st1" cx="16.07" cy="17.72" r="0.42"/>
			<circle class="st1" cx="16.82" cy="17.3" r="0.42"/>
			<circle class="st1" cx="17.53" cy="16.81" r="0.42"/>
			<circle class="st1" cx="18.16" cy="16.21" r="0.42"/>
			<circle class="st1" cx="18.72" cy="15.53" r="0.42"/>
		</g>
	</g>
	<g>
		<g>
			<path class="st0" d="M53.38,17.37c-0.4-0.8-1.26-1.27-2.11-1.56c-1.42-0.48-3.02-0.53-2.99-2.38l0.06-3.35h-8.03l0.06,3.35
				c0.03,1.85-1.56,1.9-2.99,2.38c-0.79,0.27-1.58,0.69-2.01,1.39c-0.03,0.05-0.06,0.11-0.09,0.16c-0.3,0.6-0.3,1.3-0.24,1.97
				c0.29,2.89,1.65,5.58,3.24,7.96c0.4,0.59,0.82,1.18,1.25,1.75c0.33,0.43,0.66,1.04,1.16,1.29c0,0,0,0,0.01,0
				c0.36,0.18,3.63,0.16,3.63,0.16c0,0,0-0.01,0-0.04c0,0.03,0,0.04,0,0.04c0,0,3.27,0.02,3.63-0.16c0.5-0.25,0.83-0.86,1.16-1.29
				c0.43-0.57,0.85-1.15,1.25-1.75c1.59-2.38,2.95-5.07,3.24-7.96C53.69,18.67,53.68,17.97,53.38,17.37z"/>
			<path class="st3" d="M48.35,10.08c0,0.14-1.8,0.24-4.01,0.24c-2.22,0-4.01-0.11-4.01-0.24c0-0.14,1.8-0.24,4.01-0.24
				C46.55,9.83,48.35,9.94,48.35,10.08z"/>
			<path class="st0" d="M51.16,30.33H37.51c-0.38,0-0.69,0.31-0.69,0.69v0.1c0,0.38,0.31,0.69,0.69,0.69h13.65
				c0.38,0,0.69-0.31,0.69-0.69v-0.1C51.85,30.64,51.54,30.33,51.16,30.33z"/>
		</g>
		<g>
			<g>
				<path class="st1" d="M44.37,21.18c-0.02,0-0.04,0-0.06-0.01c-1.26-0.26-2.35-1.71-3.25-3.11c-0.31-0.48-0.63-0.99-0.87-1.53
					c-0.29-0.66-0.43-1.25-0.41-1.75c0.01-0.2,0.1-0.44,0.33-0.49c0.04-0.01,0.07,0.02,0.08,0.05c0.01,0.04-0.02,0.07-0.05,0.08
					c-0.16,0.03-0.21,0.24-0.22,0.36c-0.02,0.47,0.12,1.05,0.4,1.69c0.23,0.54,0.55,1.04,0.86,1.51c0.83,1.29,1.94,2.8,3.16,3.05
					c0.08,0.02,0.27-0.03,0.37-0.08c1.8-0.95,2.77-2.95,3.48-4.77c0.09-0.23,0.19-0.49,0.27-0.75c0.02-0.06,0.04-0.12,0.06-0.18
					c0.06-0.17,0.12-0.35,0.13-0.53c0.01-0.2-0.02-0.34-0.17-0.43c-0.03-0.02-0.04-0.06-0.03-0.09c0.02-0.03,0.06-0.04,0.09-0.03
					c0.23,0.13,0.25,0.34,0.24,0.56c-0.01,0.2-0.07,0.39-0.13,0.57c-0.02,0.06-0.04,0.12-0.06,0.18c-0.08,0.27-0.18,0.54-0.27,0.76
					c-0.72,1.85-1.7,3.88-3.55,4.85C44.69,21.12,44.5,21.18,44.37,21.18z"/>
			</g>
			<g>
				<path class="st1" d="M44.25,17.73c-1.32,0-3.7-1.16-4.4-2.99c-0.01-0.04,0-0.07,0.04-0.09c0.04-0.01,0.07,0,0.09,0.04
					c0.69,1.8,3.07,2.93,4.34,2.9c2.45-0.08,3.6-1.74,3.98-2.29l0.03-0.04c0.17-0.24,0.25-0.47,0.24-0.69
					c0-0.04,0.03-0.07,0.07-0.07c0.04,0,0.07,0.03,0.07,0.07c0.01,0.25-0.08,0.5-0.27,0.77l-0.03,0.04
					c-0.39,0.56-1.57,2.27-4.09,2.35C44.3,17.73,44.28,17.73,44.25,17.73z"/>
			</g>
			<g>
				<path class="st1" d="M44.33,21.63c-0.04,0-0.07-0.03-0.07-0.07v-0.52c0-0.04,0.03-0.07,0.07-0.07c0.04,0,0.07,0.03,0.07,0.07
					v0.52C44.4,21.6,44.37,21.63,44.33,21.63z"/>
			</g>
			<circle class="st1" cx="44.33" cy="22.26" r="0.7"/>
		</g>
	</g>
	<rect x="32.82" y="31.8" class="st0" width="23.03" height="5.41"/>
</g>
</svg>
