<?xml version="1.0" encoding="utf-8"?>
<!-- Generator: Adobe Illustrator 24.3.0, SVG Export Plug-In . SVG Version: 6.00 Build 0)  -->
<svg version="1.1" id="Layer_1" xmlns="http://www.w3.org/2000/svg" xmlns:xlink="http://www.w3.org/1999/xlink" x="0px" y="0px"
	 viewBox="0 0 100 100" style="enable-background:new 0 0 100 100;" xml:space="preserve">
<style type="text/css">
	.st0{fill:#262861;}
</style>
<g>
	<polygon class="st0" points="48.9,41.89 52.75,37.98 51.41,36.62 47.56,40.53 	"/>
	<polygon class="st0" points="48.2,43.71 49.55,45.07 52.28,42.3 50.94,40.93 	"/>
	<path class="st0" d="M73.62,12.04L62.65,9.9l-2.17-6.44C59.82,1.49,58,0.17,55.95,0.17H49.8h-6.15c-2.05,0-3.87,1.32-4.54,3.29
		L36.95,9.9l-10.97,2.14c-4.21,0.82-7.27,4.58-7.27,8.93v3.53c0,12.29,2.08,24.38,6.17,35.94l7.73,21.81H49.8h17.18l7.73-21.81
		c4.1-11.56,6.17-23.65,6.17-35.94v-3.53C80.88,16.62,77.83,12.87,73.62,12.04z M38.4,11.59l2.52-7.5c0.4-1.19,1.5-1.99,2.73-1.99
		h6.15h6.15c1.24,0,2.33,0.8,2.73,1.99l2.52,7.5L68.42,13c-0.47,11.35-8.06,20.41-17.33,20.41c-9.4,0-17.08-9.33-17.34-20.91
		L38.4,11.59z M54.73,41.61c0,3.4-1.67,6.27-3.65,6.27c-1.98,0-3.65-2.87-3.65-6.27c0-3.4,1.67-6.27,3.65-6.27
		C53.06,35.34,54.73,38.21,54.73,41.61z M78.98,24.5c0,12.06-2.04,23.93-6.06,35.28l-7.27,20.53H49.8H33.96l-7.27-20.53
		c-4.02-11.35-6.06-23.22-6.06-35.28v-3.53c0-3.43,2.41-6.38,5.72-7.03l1.87-0.36c0.11,12.49,7.03,23.43,16.92,26.67l0.58-1.84
		c-9.19-3.01-15.61-13.34-15.61-25.12h-0.42l2.16-0.42c0.38,11.12,7.14,20.26,15.93,22.12c-1.37,1.48-2.25,3.87-2.25,6.62
		c0,4.6,2.44,8.2,5.55,8.2s5.55-3.6,5.55-8.2c0-2.75-0.88-5.14-2.25-6.62c8.66-1.83,15.35-10.73,15.91-21.63l1.76,0.34
		c-0.12,11.24-6.02,21.02-14.79,24.42l0.68,1.81c9.39-3.63,15.75-13.94,16.01-25.81c2.95,0.9,5.02,3.67,5.02,6.85V24.5z"/>
</g>
<path class="st0" d="M58.67,93.8h-4.27V82.25h-1.49v13.04l5.73,0c0.06,0,5.35,0.19,6.11,3.22H51.2h-2.8H34.84
	c0.75-3.02,6.05-3.22,6.08-3.22h5.76V82.25h-1.49V93.8l-4.29,0c-0.31,0.01-7.64,0.28-7.64,5.46V100H48.4h2.8h15.14v-0.74
	C66.33,94.08,59.01,93.81,58.67,93.8z"/>
</svg>
