<?xml version="1.0" encoding="utf-8"?>
<!-- Generator: Adobe Illustrator 24.3.0, SVG Export Plug-In . SVG Version: 6.00 Build 0)  -->
<svg version="1.1" id="Layer_1" xmlns="http://www.w3.org/2000/svg" xmlns:xlink="http://www.w3.org/1999/xlink" x="0px" y="0px"
	 viewBox="0 0 100 100" style="enable-background:new 0 0 100 100;" xml:space="preserve">
<style type="text/css">
	.st0{fill:#FFFFFF;}
</style>
<g>
	<path class="st0" d="M49.8,34.98c9.06,0,18.12,0.01,27.19-0.02c1.15,0,1.93,0.35,2.63,1.29c4.31,5.74,8.67,11.45,13.01,17.17
		c0.97,1.27,0.94,1.94-0.15,3.08c-13.6,14.16-27.2,28.32-40.8,42.48c-1.32,1.37-2.14,1.36-3.46,0C34.62,84.9,21.03,70.82,7.44,56.75
		c-1.44-1.49-1.46-1.94-0.2-3.6c4.3-5.66,8.62-11.32,12.89-17c0.63-0.84,1.35-1.18,2.38-1.17C31.61,34.99,40.7,34.98,49.8,34.98z
		 M49.94,94.04c5.67-12.56,11.26-24.94,16.88-37.4c-11.39,0-22.58,0-33.9,0C38.6,69.1,44.23,81.48,49.94,94.04z M43.44,88.85
		c0.05-0.04,0.11-0.07,0.16-0.11c-0.09-0.24-0.16-0.49-0.27-0.72c-4.65-10.22-9.31-20.44-13.94-30.67
		c-0.29-0.64-0.65-0.78-1.29-0.78c-4.9,0.02-9.8,0.01-14.71,0.01c-0.29,0-0.58,0.03-1.08,0.05C22.78,67.46,33.11,78.15,43.44,88.85z
		 M87.36,56.63c-0.5-0.02-0.79-0.05-1.08-0.05c-4.87,0-9.73,0.02-14.6-0.02c-0.77-0.01-1.09,0.27-1.39,0.94
		c-4.56,10.15-9.14,20.28-13.72,30.42c-0.12,0.26-0.21,0.54-0.31,0.81c0.05,0.04,0.11,0.08,0.16,0.11
		C66.68,78.17,76.94,67.48,87.36,56.63z M65.44,52.96c-5.31-4.73-10.45-9.3-15.6-13.9c-5.15,4.64-10.22,9.21-15.42,13.9
		C44.85,52.96,55.03,52.96,65.44,52.96z M45.19,38.54c-6.96,0-13.67,0-20.52,0c2,4.4,3.96,8.7,5.97,13.11
		C35.5,47.27,40.25,42.99,45.19,38.54z M54.51,38.54c4.99,4.44,9.77,8.7,14.63,13.03c1.98-4.39,3.92-8.68,5.88-13.03
		C68.18,38.54,61.49,38.54,54.51,38.54z M27.38,52.97c-1.98-4.34-3.89-8.54-5.86-12.87c-3.3,4.34-6.49,8.54-9.78,12.87
		C17.02,52.97,22.1,52.97,27.38,52.97z M78.16,40.12c-1.97,4.37-3.87,8.58-5.79,12.84c5.22,0,10.3,0,15.56,0
		C84.63,48.64,81.44,44.45,78.16,40.12z"/>
	<path class="st0" d="M92.82,15.04c-0.37,0.66-0.54,1.15-0.85,1.5c-2.82,3.14-5.66,6.26-8.51,9.37c-0.81,0.89-1.91,0.97-2.66,0.26
		c-0.74-0.7-0.75-1.73,0.04-2.6c2.85-3.16,5.72-6.29,8.58-9.45c0.59-0.65,1.34-0.93,2.07-0.53C92.01,13.87,92.36,14.52,92.82,15.04z
		"/>
	<path class="st0" d="M19.63,25.01c-0.44,0.51-0.77,1.11-1.28,1.43c-0.68,0.42-1.44,0.22-2.01-0.39c-0.87-0.93-1.72-1.88-2.58-2.82
		c-2.03-2.23-4.06-4.47-6.1-6.7c-0.57-0.63-0.76-1.34-0.35-2.12c0.39-0.74,1.05-1.06,1.85-0.89c0.4,0.09,0.82,0.34,1.09,0.64
		c2.87,3.11,5.71,6.24,8.54,9.38C19.11,23.88,19.28,24.37,19.63,25.01z"/>
	<path class="st0" d="M74.5,6.06c-0.06,0.19-0.11,0.49-0.24,0.76c-1.7,3.71-3.41,7.42-5.12,11.13c-0.35,0.77-0.92,1.23-1.81,1.18
		c-1.19-0.07-2-1.27-1.49-2.4c1.74-3.88,3.54-7.73,5.34-11.59c0.39-0.84,1.15-1.12,2.03-0.9C74.06,4.46,74.47,5.09,74.5,6.06z"/>
	<path class="st0" d="M27.1,3.99c0.47,0.41,1.14,0.73,1.38,1.25c1.81,3.77,3.55,7.58,5.28,11.39c0.45,1,0.07,1.95-0.84,2.37
		c-0.9,0.41-1.88,0.07-2.34-0.92c-1.76-3.76-3.5-7.53-5.21-11.31C24.78,5.46,25.58,4.19,27.1,3.99z"/>
	<path class="st0" d="M51.61,7.75c0,1.81,0.01,3.62,0,5.44c-0.01,1.36-0.64,2.12-1.73,2.15c-1.14,0.03-1.82-0.76-1.82-2.16
		c-0.01-3.69-0.01-7.38,0-11.07c0-1.36,0.63-2.12,1.73-2.15c1.15-0.03,1.82,0.75,1.83,2.15C51.62,3.99,51.61,5.87,51.61,7.75z"/>
</g>
</svg>
