<?xml version="1.0" encoding="utf-8"?>
<!-- Generator: Adobe Illustrator 24.3.0, SVG Export Plug-In . SVG Version: 6.00 Build 0)  -->
<svg version="1.1" id="Layer_1" xmlns="http://www.w3.org/2000/svg" xmlns:xlink="http://www.w3.org/1999/xlink" x="0px" y="0px"
	 viewBox="0 0 100 100" style="enable-background:new 0 0 100 100;" xml:space="preserve">
<style type="text/css">
	.st0{fill:#FFFFFF;}
</style>
<g>
	<path class="st0" d="M12.16,90.72c0-10.85,0-21.54,0-32.32c4.95,0,9.8,0,14.82,0c0,10.74,0,21.47,0,32.25c2.21,0,4.26,0,6.44,0
		c0-13.98,0-27.9,0-41.9c4.98,0,9.83,0,14.83,0c0,13.97,0,27.89,0,41.89c2.19,0,4.24,0,6.42,0c0-17.2,0-34.35,0-51.61
		c4.99,0,9.84,0,14.85,0c0,17.22,0,34.38,0,51.61c2.2,0,4.25,0,6.44,0c0-20.38,0-40.69,0-61.07c5,0,9.85,0,14.85,0
		c0,20.37,0,40.68,0,61.14c2.38,0,4.61,0,6.84,0c0.43,0,0.96-0.11,1.26,0.1c0.44,0.3,1,0.84,1,1.29c0,0.44-0.55,0.99-0.99,1.3
		c-0.3,0.21-0.83,0.1-1.26,0.1c-31.78,0-63.55,0-95.33,0c-0.22,0-0.43,0-0.65,0c-0.93,0-1.67-0.33-1.69-1.36
		c-0.02-1.12,0.77-1.43,1.75-1.42c2.94,0,5.87,0,8.81,0C11.03,90.72,11.5,90.72,12.16,90.72z"/>
	<path class="st0" d="M79.05,9.31c-0.55-0.03-1.19,0.11-1.64-0.12c-0.49-0.26-1.12-0.86-1.12-1.31c0-0.45,0.67-1.26,1.1-1.3
		c1.76-0.15,3.53-0.13,5.3-0.04c0.85,0.04,1.22,0.72,1.22,1.56c0,1.47,0,2.93,0,4.4c0,0.96-0.41,1.65-1.4,1.66
		c-0.92,0-1.35-0.65-1.38-1.55c-0.01-0.28-0.04-0.57-0.07-1.02c-1.43,1.28-2.72,2.47-4.05,3.62c-8.46,7.33-18.15,12.68-28.22,17.38
		c-14.44,6.75-29.5,11.58-45.24,14.22c-0.3,0.05-0.6,0.08-0.9,0.11c-0.89,0.07-1.55-0.4-1.49-1.21C1.2,45.2,1.81,44.42,2.3,44.3
		c2.22-0.54,4.49-0.82,6.72-1.31c21.14-4.56,41-12.29,59.02-24.38c3.95-2.65,7.52-5.88,11.26-8.84C79.22,9.62,79.13,9.47,79.05,9.31
		z"/>
</g>
</svg>
